%TF.GenerationSoftware,KiCad,Pcbnew,9.0.1*%
%TF.CreationDate,2025-11-13T19:44:27+01:00*%
%TF.ProjectId,RC thing,52432074-6869-46e6-972e-6b696361645f,rev?*%
%TF.SameCoordinates,Original*%
%TF.FileFunction,Legend,Bot*%
%TF.FilePolarity,Positive*%
%FSLAX46Y46*%
G04 Gerber Fmt 4.6, Leading zero omitted, Abs format (unit mm)*
G04 Created by KiCad (PCBNEW 9.0.1) date 2025-11-13 19:44:27*
%MOMM*%
%LPD*%
G01*
G04 APERTURE LIST*
%ADD10C,0.100000*%
%ADD11C,0.150000*%
%ADD12C,0.125000*%
%ADD13C,0.120000*%
G04 APERTURE END LIST*
D10*
X135596895Y-68730074D02*
X135063561Y-69149122D01*
X135063561Y-68730074D02*
X135596895Y-69149122D01*
X134873085Y-69415788D02*
X134834990Y-69453884D01*
X134834990Y-69453884D02*
X134796895Y-69530074D01*
X134796895Y-69530074D02*
X134796895Y-69720550D01*
X134796895Y-69720550D02*
X134834990Y-69796741D01*
X134834990Y-69796741D02*
X134873085Y-69834836D01*
X134873085Y-69834836D02*
X134949276Y-69872931D01*
X134949276Y-69872931D02*
X135025466Y-69872931D01*
X135025466Y-69872931D02*
X135139752Y-69834836D01*
X135139752Y-69834836D02*
X135596895Y-69377693D01*
X135596895Y-69377693D02*
X135596895Y-69872931D01*
X141233020Y-63380752D02*
X141233020Y-61952180D01*
D11*
X121036779Y-68063866D02*
X121798684Y-68063866D01*
X122274874Y-67778152D02*
X123036779Y-68063866D01*
X123036779Y-68063866D02*
X122274874Y-68349580D01*
D10*
X116656265Y-66521895D02*
X116656265Y-65721895D01*
X117037217Y-66521895D02*
X117037217Y-65721895D01*
X117037217Y-65721895D02*
X117494360Y-66521895D01*
X117494360Y-66521895D02*
X117494360Y-65721895D01*
X118637217Y-65721895D02*
X118789598Y-65721895D01*
X118789598Y-65721895D02*
X118865788Y-65759990D01*
X118865788Y-65759990D02*
X118941979Y-65836180D01*
X118941979Y-65836180D02*
X118980074Y-65988561D01*
X118980074Y-65988561D02*
X118980074Y-66255228D01*
X118980074Y-66255228D02*
X118941979Y-66407609D01*
X118941979Y-66407609D02*
X118865788Y-66483800D01*
X118865788Y-66483800D02*
X118789598Y-66521895D01*
X118789598Y-66521895D02*
X118637217Y-66521895D01*
X118637217Y-66521895D02*
X118561026Y-66483800D01*
X118561026Y-66483800D02*
X118484836Y-66407609D01*
X118484836Y-66407609D02*
X118446740Y-66255228D01*
X118446740Y-66255228D02*
X118446740Y-65988561D01*
X118446740Y-65988561D02*
X118484836Y-65836180D01*
X118484836Y-65836180D02*
X118561026Y-65759990D01*
X118561026Y-65759990D02*
X118637217Y-65721895D01*
X119780074Y-66521895D02*
X119513407Y-66140942D01*
X119322931Y-66521895D02*
X119322931Y-65721895D01*
X119322931Y-65721895D02*
X119627693Y-65721895D01*
X119627693Y-65721895D02*
X119703883Y-65759990D01*
X119703883Y-65759990D02*
X119741978Y-65798085D01*
X119741978Y-65798085D02*
X119780074Y-65874276D01*
X119780074Y-65874276D02*
X119780074Y-65988561D01*
X119780074Y-65988561D02*
X119741978Y-66064752D01*
X119741978Y-66064752D02*
X119703883Y-66102847D01*
X119703883Y-66102847D02*
X119627693Y-66140942D01*
X119627693Y-66140942D02*
X119322931Y-66140942D01*
X120122931Y-66521895D02*
X120122931Y-65721895D01*
X120122931Y-65721895D02*
X120313407Y-65721895D01*
X120313407Y-65721895D02*
X120427693Y-65759990D01*
X120427693Y-65759990D02*
X120503883Y-65836180D01*
X120503883Y-65836180D02*
X120541978Y-65912371D01*
X120541978Y-65912371D02*
X120580074Y-66064752D01*
X120580074Y-66064752D02*
X120580074Y-66179038D01*
X120580074Y-66179038D02*
X120541978Y-66331419D01*
X120541978Y-66331419D02*
X120503883Y-66407609D01*
X120503883Y-66407609D02*
X120427693Y-66483800D01*
X120427693Y-66483800D02*
X120313407Y-66521895D01*
X120313407Y-66521895D02*
X120122931Y-66521895D01*
X120922931Y-66102847D02*
X121189597Y-66102847D01*
X121303883Y-66521895D02*
X120922931Y-66521895D01*
X120922931Y-66521895D02*
X120922931Y-65721895D01*
X120922931Y-65721895D02*
X121303883Y-65721895D01*
X122103884Y-66521895D02*
X121837217Y-66140942D01*
X121646741Y-66521895D02*
X121646741Y-65721895D01*
X121646741Y-65721895D02*
X121951503Y-65721895D01*
X121951503Y-65721895D02*
X122027693Y-65759990D01*
X122027693Y-65759990D02*
X122065788Y-65798085D01*
X122065788Y-65798085D02*
X122103884Y-65874276D01*
X122103884Y-65874276D02*
X122103884Y-65988561D01*
X122103884Y-65988561D02*
X122065788Y-66064752D01*
X122065788Y-66064752D02*
X122027693Y-66102847D01*
X122027693Y-66102847D02*
X121951503Y-66140942D01*
X121951503Y-66140942D02*
X121646741Y-66140942D01*
D11*
X142983390Y-81727381D02*
X142935771Y-81632143D01*
X142935771Y-81632143D02*
X142888152Y-81584524D01*
X142888152Y-81584524D02*
X142792914Y-81536905D01*
X142792914Y-81536905D02*
X142745295Y-81536905D01*
X142745295Y-81536905D02*
X142650057Y-81584524D01*
X142650057Y-81584524D02*
X142602438Y-81632143D01*
X142602438Y-81632143D02*
X142554819Y-81727381D01*
X142554819Y-81727381D02*
X142554819Y-81917857D01*
X142554819Y-81917857D02*
X142602438Y-82013095D01*
X142602438Y-82013095D02*
X142650057Y-82060714D01*
X142650057Y-82060714D02*
X142745295Y-82108333D01*
X142745295Y-82108333D02*
X142792914Y-82108333D01*
X142792914Y-82108333D02*
X142888152Y-82060714D01*
X142888152Y-82060714D02*
X142935771Y-82013095D01*
X142935771Y-82013095D02*
X142983390Y-81917857D01*
X142983390Y-81917857D02*
X142983390Y-81727381D01*
X142983390Y-81727381D02*
X143031009Y-81632143D01*
X143031009Y-81632143D02*
X143078628Y-81584524D01*
X143078628Y-81584524D02*
X143173866Y-81536905D01*
X143173866Y-81536905D02*
X143364342Y-81536905D01*
X143364342Y-81536905D02*
X143459580Y-81584524D01*
X143459580Y-81584524D02*
X143507200Y-81632143D01*
X143507200Y-81632143D02*
X143554819Y-81727381D01*
X143554819Y-81727381D02*
X143554819Y-81917857D01*
X143554819Y-81917857D02*
X143507200Y-82013095D01*
X143507200Y-82013095D02*
X143459580Y-82060714D01*
X143459580Y-82060714D02*
X143364342Y-82108333D01*
X143364342Y-82108333D02*
X143173866Y-82108333D01*
X143173866Y-82108333D02*
X143078628Y-82060714D01*
X143078628Y-82060714D02*
X143031009Y-82013095D01*
X143031009Y-82013095D02*
X142983390Y-81917857D01*
X142650057Y-82489286D02*
X142602438Y-82536905D01*
X142602438Y-82536905D02*
X142554819Y-82632143D01*
X142554819Y-82632143D02*
X142554819Y-82870238D01*
X142554819Y-82870238D02*
X142602438Y-82965476D01*
X142602438Y-82965476D02*
X142650057Y-83013095D01*
X142650057Y-83013095D02*
X142745295Y-83060714D01*
X142745295Y-83060714D02*
X142840533Y-83060714D01*
X142840533Y-83060714D02*
X142983390Y-83013095D01*
X142983390Y-83013095D02*
X143554819Y-82441667D01*
X143554819Y-82441667D02*
X143554819Y-83060714D01*
X142554819Y-83679762D02*
X142554819Y-83775000D01*
X142554819Y-83775000D02*
X142602438Y-83870238D01*
X142602438Y-83870238D02*
X142650057Y-83917857D01*
X142650057Y-83917857D02*
X142745295Y-83965476D01*
X142745295Y-83965476D02*
X142935771Y-84013095D01*
X142935771Y-84013095D02*
X143173866Y-84013095D01*
X143173866Y-84013095D02*
X143364342Y-83965476D01*
X143364342Y-83965476D02*
X143459580Y-83917857D01*
X143459580Y-83917857D02*
X143507200Y-83870238D01*
X143507200Y-83870238D02*
X143554819Y-83775000D01*
X143554819Y-83775000D02*
X143554819Y-83679762D01*
X143554819Y-83679762D02*
X143507200Y-83584524D01*
X143507200Y-83584524D02*
X143459580Y-83536905D01*
X143459580Y-83536905D02*
X143364342Y-83489286D01*
X143364342Y-83489286D02*
X143173866Y-83441667D01*
X143173866Y-83441667D02*
X142935771Y-83441667D01*
X142935771Y-83441667D02*
X142745295Y-83489286D01*
X142745295Y-83489286D02*
X142650057Y-83536905D01*
X142650057Y-83536905D02*
X142602438Y-83584524D01*
X142602438Y-83584524D02*
X142554819Y-83679762D01*
X143554819Y-85013095D02*
X143078628Y-84679762D01*
X143554819Y-84441667D02*
X142554819Y-84441667D01*
X142554819Y-84441667D02*
X142554819Y-84822619D01*
X142554819Y-84822619D02*
X142602438Y-84917857D01*
X142602438Y-84917857D02*
X142650057Y-84965476D01*
X142650057Y-84965476D02*
X142745295Y-85013095D01*
X142745295Y-85013095D02*
X142888152Y-85013095D01*
X142888152Y-85013095D02*
X142983390Y-84965476D01*
X142983390Y-84965476D02*
X143031009Y-84917857D01*
X143031009Y-84917857D02*
X143078628Y-84822619D01*
X143078628Y-84822619D02*
X143078628Y-84441667D01*
D10*
X140595238Y-84764895D02*
X141052381Y-84764895D01*
X140823809Y-84764895D02*
X140823809Y-83964895D01*
X140823809Y-83964895D02*
X140900000Y-84079180D01*
X140900000Y-84079180D02*
X140976190Y-84155371D01*
X140976190Y-84155371D02*
X141052381Y-84193466D01*
X140099999Y-83964895D02*
X140023809Y-83964895D01*
X140023809Y-83964895D02*
X139947618Y-84002990D01*
X139947618Y-84002990D02*
X139909523Y-84041085D01*
X139909523Y-84041085D02*
X139871428Y-84117276D01*
X139871428Y-84117276D02*
X139833333Y-84269657D01*
X139833333Y-84269657D02*
X139833333Y-84460133D01*
X139833333Y-84460133D02*
X139871428Y-84612514D01*
X139871428Y-84612514D02*
X139909523Y-84688704D01*
X139909523Y-84688704D02*
X139947618Y-84726800D01*
X139947618Y-84726800D02*
X140023809Y-84764895D01*
X140023809Y-84764895D02*
X140099999Y-84764895D01*
X140099999Y-84764895D02*
X140176190Y-84726800D01*
X140176190Y-84726800D02*
X140214285Y-84688704D01*
X140214285Y-84688704D02*
X140252380Y-84612514D01*
X140252380Y-84612514D02*
X140290476Y-84460133D01*
X140290476Y-84460133D02*
X140290476Y-84269657D01*
X140290476Y-84269657D02*
X140252380Y-84117276D01*
X140252380Y-84117276D02*
X140214285Y-84041085D01*
X140214285Y-84041085D02*
X140176190Y-84002990D01*
X140176190Y-84002990D02*
X140099999Y-83964895D01*
X139338094Y-83964895D02*
X139261904Y-83964895D01*
X139261904Y-83964895D02*
X139185713Y-84002990D01*
X139185713Y-84002990D02*
X139147618Y-84041085D01*
X139147618Y-84041085D02*
X139109523Y-84117276D01*
X139109523Y-84117276D02*
X139071428Y-84269657D01*
X139071428Y-84269657D02*
X139071428Y-84460133D01*
X139071428Y-84460133D02*
X139109523Y-84612514D01*
X139109523Y-84612514D02*
X139147618Y-84688704D01*
X139147618Y-84688704D02*
X139185713Y-84726800D01*
X139185713Y-84726800D02*
X139261904Y-84764895D01*
X139261904Y-84764895D02*
X139338094Y-84764895D01*
X139338094Y-84764895D02*
X139414285Y-84726800D01*
X139414285Y-84726800D02*
X139452380Y-84688704D01*
X139452380Y-84688704D02*
X139490475Y-84612514D01*
X139490475Y-84612514D02*
X139528571Y-84460133D01*
X139528571Y-84460133D02*
X139528571Y-84269657D01*
X139528571Y-84269657D02*
X139490475Y-84117276D01*
X139490475Y-84117276D02*
X139452380Y-84041085D01*
X139452380Y-84041085D02*
X139414285Y-84002990D01*
X139414285Y-84002990D02*
X139338094Y-83964895D01*
X138728570Y-84231561D02*
X138728570Y-84764895D01*
X138728570Y-84307752D02*
X138690475Y-84269657D01*
X138690475Y-84269657D02*
X138614285Y-84231561D01*
X138614285Y-84231561D02*
X138499999Y-84231561D01*
X138499999Y-84231561D02*
X138423808Y-84269657D01*
X138423808Y-84269657D02*
X138385713Y-84345847D01*
X138385713Y-84345847D02*
X138385713Y-84764895D01*
D11*
X121729819Y-80578964D02*
X122539342Y-80578964D01*
X122539342Y-80578964D02*
X122634580Y-80626583D01*
X122634580Y-80626583D02*
X122682200Y-80674202D01*
X122682200Y-80674202D02*
X122729819Y-80769440D01*
X122729819Y-80769440D02*
X122729819Y-80959916D01*
X122729819Y-80959916D02*
X122682200Y-81055154D01*
X122682200Y-81055154D02*
X122634580Y-81102773D01*
X122634580Y-81102773D02*
X122539342Y-81150392D01*
X122539342Y-81150392D02*
X121729819Y-81150392D01*
X122729819Y-82150392D02*
X122729819Y-81578964D01*
X122729819Y-81864678D02*
X121729819Y-81864678D01*
X121729819Y-81864678D02*
X121872676Y-81769440D01*
X121872676Y-81769440D02*
X121967914Y-81674202D01*
X121967914Y-81674202D02*
X122015533Y-81578964D01*
X121729819Y-82769440D02*
X121729819Y-82864678D01*
X121729819Y-82864678D02*
X121777438Y-82959916D01*
X121777438Y-82959916D02*
X121825057Y-83007535D01*
X121825057Y-83007535D02*
X121920295Y-83055154D01*
X121920295Y-83055154D02*
X122110771Y-83102773D01*
X122110771Y-83102773D02*
X122348866Y-83102773D01*
X122348866Y-83102773D02*
X122539342Y-83055154D01*
X122539342Y-83055154D02*
X122634580Y-83007535D01*
X122634580Y-83007535D02*
X122682200Y-82959916D01*
X122682200Y-82959916D02*
X122729819Y-82864678D01*
X122729819Y-82864678D02*
X122729819Y-82769440D01*
X122729819Y-82769440D02*
X122682200Y-82674202D01*
X122682200Y-82674202D02*
X122634580Y-82626583D01*
X122634580Y-82626583D02*
X122539342Y-82578964D01*
X122539342Y-82578964D02*
X122348866Y-82531345D01*
X122348866Y-82531345D02*
X122110771Y-82531345D01*
X122110771Y-82531345D02*
X121920295Y-82578964D01*
X121920295Y-82578964D02*
X121825057Y-82626583D01*
X121825057Y-82626583D02*
X121777438Y-82674202D01*
X121777438Y-82674202D02*
X121729819Y-82769440D01*
X121825057Y-83483726D02*
X121777438Y-83531345D01*
X121777438Y-83531345D02*
X121729819Y-83626583D01*
X121729819Y-83626583D02*
X121729819Y-83864678D01*
X121729819Y-83864678D02*
X121777438Y-83959916D01*
X121777438Y-83959916D02*
X121825057Y-84007535D01*
X121825057Y-84007535D02*
X121920295Y-84055154D01*
X121920295Y-84055154D02*
X122015533Y-84055154D01*
X122015533Y-84055154D02*
X122158390Y-84007535D01*
X122158390Y-84007535D02*
X122729819Y-83436107D01*
X122729819Y-83436107D02*
X122729819Y-84055154D01*
X157912200Y-73466667D02*
X157959819Y-73609524D01*
X157959819Y-73609524D02*
X157959819Y-73847619D01*
X157959819Y-73847619D02*
X157912200Y-73942857D01*
X157912200Y-73942857D02*
X157864580Y-73990476D01*
X157864580Y-73990476D02*
X157769342Y-74038095D01*
X157769342Y-74038095D02*
X157674104Y-74038095D01*
X157674104Y-74038095D02*
X157578866Y-73990476D01*
X157578866Y-73990476D02*
X157531247Y-73942857D01*
X157531247Y-73942857D02*
X157483628Y-73847619D01*
X157483628Y-73847619D02*
X157436009Y-73657143D01*
X157436009Y-73657143D02*
X157388390Y-73561905D01*
X157388390Y-73561905D02*
X157340771Y-73514286D01*
X157340771Y-73514286D02*
X157245533Y-73466667D01*
X157245533Y-73466667D02*
X157150295Y-73466667D01*
X157150295Y-73466667D02*
X157055057Y-73514286D01*
X157055057Y-73514286D02*
X157007438Y-73561905D01*
X157007438Y-73561905D02*
X156959819Y-73657143D01*
X156959819Y-73657143D02*
X156959819Y-73895238D01*
X156959819Y-73895238D02*
X157007438Y-74038095D01*
X156959819Y-74371429D02*
X157959819Y-74609524D01*
X157959819Y-74609524D02*
X157245533Y-74800000D01*
X157245533Y-74800000D02*
X157959819Y-74990476D01*
X157959819Y-74990476D02*
X156959819Y-75228572D01*
X157055057Y-75561905D02*
X157007438Y-75609524D01*
X157007438Y-75609524D02*
X156959819Y-75704762D01*
X156959819Y-75704762D02*
X156959819Y-75942857D01*
X156959819Y-75942857D02*
X157007438Y-76038095D01*
X157007438Y-76038095D02*
X157055057Y-76085714D01*
X157055057Y-76085714D02*
X157150295Y-76133333D01*
X157150295Y-76133333D02*
X157245533Y-76133333D01*
X157245533Y-76133333D02*
X157388390Y-76085714D01*
X157388390Y-76085714D02*
X157959819Y-75514286D01*
X157959819Y-75514286D02*
X157959819Y-76133333D01*
D10*
X136882143Y-64839895D02*
X137339286Y-64839895D01*
X137110714Y-64839895D02*
X137110714Y-64039895D01*
X137110714Y-64039895D02*
X137186905Y-64154180D01*
X137186905Y-64154180D02*
X137263095Y-64230371D01*
X137263095Y-64230371D02*
X137339286Y-64268466D01*
X136386904Y-64039895D02*
X136310714Y-64039895D01*
X136310714Y-64039895D02*
X136234523Y-64077990D01*
X136234523Y-64077990D02*
X136196428Y-64116085D01*
X136196428Y-64116085D02*
X136158333Y-64192276D01*
X136158333Y-64192276D02*
X136120238Y-64344657D01*
X136120238Y-64344657D02*
X136120238Y-64535133D01*
X136120238Y-64535133D02*
X136158333Y-64687514D01*
X136158333Y-64687514D02*
X136196428Y-64763704D01*
X136196428Y-64763704D02*
X136234523Y-64801800D01*
X136234523Y-64801800D02*
X136310714Y-64839895D01*
X136310714Y-64839895D02*
X136386904Y-64839895D01*
X136386904Y-64839895D02*
X136463095Y-64801800D01*
X136463095Y-64801800D02*
X136501190Y-64763704D01*
X136501190Y-64763704D02*
X136539285Y-64687514D01*
X136539285Y-64687514D02*
X136577381Y-64535133D01*
X136577381Y-64535133D02*
X136577381Y-64344657D01*
X136577381Y-64344657D02*
X136539285Y-64192276D01*
X136539285Y-64192276D02*
X136501190Y-64116085D01*
X136501190Y-64116085D02*
X136463095Y-64077990D01*
X136463095Y-64077990D02*
X136386904Y-64039895D01*
X135624999Y-64039895D02*
X135548809Y-64039895D01*
X135548809Y-64039895D02*
X135472618Y-64077990D01*
X135472618Y-64077990D02*
X135434523Y-64116085D01*
X135434523Y-64116085D02*
X135396428Y-64192276D01*
X135396428Y-64192276D02*
X135358333Y-64344657D01*
X135358333Y-64344657D02*
X135358333Y-64535133D01*
X135358333Y-64535133D02*
X135396428Y-64687514D01*
X135396428Y-64687514D02*
X135434523Y-64763704D01*
X135434523Y-64763704D02*
X135472618Y-64801800D01*
X135472618Y-64801800D02*
X135548809Y-64839895D01*
X135548809Y-64839895D02*
X135624999Y-64839895D01*
X135624999Y-64839895D02*
X135701190Y-64801800D01*
X135701190Y-64801800D02*
X135739285Y-64763704D01*
X135739285Y-64763704D02*
X135777380Y-64687514D01*
X135777380Y-64687514D02*
X135815476Y-64535133D01*
X135815476Y-64535133D02*
X135815476Y-64344657D01*
X135815476Y-64344657D02*
X135777380Y-64192276D01*
X135777380Y-64192276D02*
X135739285Y-64116085D01*
X135739285Y-64116085D02*
X135701190Y-64077990D01*
X135701190Y-64077990D02*
X135624999Y-64039895D01*
X135015475Y-64839895D02*
X135015475Y-64039895D01*
X134939285Y-64535133D02*
X134710713Y-64839895D01*
X134710713Y-64306561D02*
X135015475Y-64611323D01*
D11*
X162014819Y-68391666D02*
X162729104Y-68391666D01*
X162729104Y-68391666D02*
X162871961Y-68344047D01*
X162871961Y-68344047D02*
X162967200Y-68248809D01*
X162967200Y-68248809D02*
X163014819Y-68105952D01*
X163014819Y-68105952D02*
X163014819Y-68010714D01*
X162110057Y-68820238D02*
X162062438Y-68867857D01*
X162062438Y-68867857D02*
X162014819Y-68963095D01*
X162014819Y-68963095D02*
X162014819Y-69201190D01*
X162014819Y-69201190D02*
X162062438Y-69296428D01*
X162062438Y-69296428D02*
X162110057Y-69344047D01*
X162110057Y-69344047D02*
X162205295Y-69391666D01*
X162205295Y-69391666D02*
X162300533Y-69391666D01*
X162300533Y-69391666D02*
X162443390Y-69344047D01*
X162443390Y-69344047D02*
X163014819Y-68772619D01*
X163014819Y-68772619D02*
X163014819Y-69391666D01*
D10*
X135139895Y-66266666D02*
X135139895Y-65809523D01*
X135139895Y-66038095D02*
X134339895Y-66038095D01*
X134339895Y-66038095D02*
X134454180Y-65961904D01*
X134454180Y-65961904D02*
X134530371Y-65885714D01*
X134530371Y-65885714D02*
X134568466Y-65809523D01*
X134606561Y-66952381D02*
X135139895Y-66952381D01*
X134606561Y-66609524D02*
X135025609Y-66609524D01*
X135025609Y-66609524D02*
X135101800Y-66647619D01*
X135101800Y-66647619D02*
X135139895Y-66723809D01*
X135139895Y-66723809D02*
X135139895Y-66838095D01*
X135139895Y-66838095D02*
X135101800Y-66914286D01*
X135101800Y-66914286D02*
X135063704Y-66952381D01*
D11*
X122351190Y-56488152D02*
X122351190Y-57154819D01*
X122589285Y-56107200D02*
X122827380Y-56821485D01*
X122827380Y-56821485D02*
X122208333Y-56821485D01*
X121827380Y-57059580D02*
X121779761Y-57107200D01*
X121779761Y-57107200D02*
X121827380Y-57154819D01*
X121827380Y-57154819D02*
X121874999Y-57107200D01*
X121874999Y-57107200D02*
X121827380Y-57059580D01*
X121827380Y-57059580D02*
X121827380Y-57154819D01*
X121446428Y-56154819D02*
X120779762Y-56154819D01*
X120779762Y-56154819D02*
X121208333Y-57154819D01*
X119970238Y-56488152D02*
X119970238Y-57154819D01*
X120398809Y-56488152D02*
X120398809Y-57011961D01*
X120398809Y-57011961D02*
X120351190Y-57107200D01*
X120351190Y-57107200D02*
X120255952Y-57154819D01*
X120255952Y-57154819D02*
X120113095Y-57154819D01*
X120113095Y-57154819D02*
X120017857Y-57107200D01*
X120017857Y-57107200D02*
X119970238Y-57059580D01*
X148254819Y-68500952D02*
X148254819Y-67929524D01*
X148254819Y-68215238D02*
X147254819Y-68215238D01*
X147254819Y-68215238D02*
X147397676Y-68120000D01*
X147397676Y-68120000D02*
X147492914Y-68024762D01*
X147492914Y-68024762D02*
X147540533Y-67929524D01*
X147254819Y-69120000D02*
X147254819Y-69215238D01*
X147254819Y-69215238D02*
X147302438Y-69310476D01*
X147302438Y-69310476D02*
X147350057Y-69358095D01*
X147350057Y-69358095D02*
X147445295Y-69405714D01*
X147445295Y-69405714D02*
X147635771Y-69453333D01*
X147635771Y-69453333D02*
X147873866Y-69453333D01*
X147873866Y-69453333D02*
X148064342Y-69405714D01*
X148064342Y-69405714D02*
X148159580Y-69358095D01*
X148159580Y-69358095D02*
X148207200Y-69310476D01*
X148207200Y-69310476D02*
X148254819Y-69215238D01*
X148254819Y-69215238D02*
X148254819Y-69120000D01*
X148254819Y-69120000D02*
X148207200Y-69024762D01*
X148207200Y-69024762D02*
X148159580Y-68977143D01*
X148159580Y-68977143D02*
X148064342Y-68929524D01*
X148064342Y-68929524D02*
X147873866Y-68881905D01*
X147873866Y-68881905D02*
X147635771Y-68881905D01*
X147635771Y-68881905D02*
X147445295Y-68929524D01*
X147445295Y-68929524D02*
X147350057Y-68977143D01*
X147350057Y-68977143D02*
X147302438Y-69024762D01*
X147302438Y-69024762D02*
X147254819Y-69120000D01*
X147254819Y-70072381D02*
X147254819Y-70167619D01*
X147254819Y-70167619D02*
X147302438Y-70262857D01*
X147302438Y-70262857D02*
X147350057Y-70310476D01*
X147350057Y-70310476D02*
X147445295Y-70358095D01*
X147445295Y-70358095D02*
X147635771Y-70405714D01*
X147635771Y-70405714D02*
X147873866Y-70405714D01*
X147873866Y-70405714D02*
X148064342Y-70358095D01*
X148064342Y-70358095D02*
X148159580Y-70310476D01*
X148159580Y-70310476D02*
X148207200Y-70262857D01*
X148207200Y-70262857D02*
X148254819Y-70167619D01*
X148254819Y-70167619D02*
X148254819Y-70072381D01*
X148254819Y-70072381D02*
X148207200Y-69977143D01*
X148207200Y-69977143D02*
X148159580Y-69929524D01*
X148159580Y-69929524D02*
X148064342Y-69881905D01*
X148064342Y-69881905D02*
X147873866Y-69834286D01*
X147873866Y-69834286D02*
X147635771Y-69834286D01*
X147635771Y-69834286D02*
X147445295Y-69881905D01*
X147445295Y-69881905D02*
X147350057Y-69929524D01*
X147350057Y-69929524D02*
X147302438Y-69977143D01*
X147302438Y-69977143D02*
X147254819Y-70072381D01*
X147588152Y-70834286D02*
X148254819Y-70834286D01*
X147683390Y-70834286D02*
X147635771Y-70881905D01*
X147635771Y-70881905D02*
X147588152Y-70977143D01*
X147588152Y-70977143D02*
X147588152Y-71120000D01*
X147588152Y-71120000D02*
X147635771Y-71215238D01*
X147635771Y-71215238D02*
X147731009Y-71262857D01*
X147731009Y-71262857D02*
X148254819Y-71262857D01*
D10*
X119639895Y-67504761D02*
X119639895Y-67047618D01*
X119639895Y-67276190D02*
X118839895Y-67276190D01*
X118839895Y-67276190D02*
X118954180Y-67199999D01*
X118954180Y-67199999D02*
X119030371Y-67123809D01*
X119030371Y-67123809D02*
X119068466Y-67047618D01*
X118839895Y-68000000D02*
X118839895Y-68076190D01*
X118839895Y-68076190D02*
X118877990Y-68152381D01*
X118877990Y-68152381D02*
X118916085Y-68190476D01*
X118916085Y-68190476D02*
X118992276Y-68228571D01*
X118992276Y-68228571D02*
X119144657Y-68266666D01*
X119144657Y-68266666D02*
X119335133Y-68266666D01*
X119335133Y-68266666D02*
X119487514Y-68228571D01*
X119487514Y-68228571D02*
X119563704Y-68190476D01*
X119563704Y-68190476D02*
X119601800Y-68152381D01*
X119601800Y-68152381D02*
X119639895Y-68076190D01*
X119639895Y-68076190D02*
X119639895Y-68000000D01*
X119639895Y-68000000D02*
X119601800Y-67923809D01*
X119601800Y-67923809D02*
X119563704Y-67885714D01*
X119563704Y-67885714D02*
X119487514Y-67847619D01*
X119487514Y-67847619D02*
X119335133Y-67809523D01*
X119335133Y-67809523D02*
X119144657Y-67809523D01*
X119144657Y-67809523D02*
X118992276Y-67847619D01*
X118992276Y-67847619D02*
X118916085Y-67885714D01*
X118916085Y-67885714D02*
X118877990Y-67923809D01*
X118877990Y-67923809D02*
X118839895Y-68000000D01*
X118839895Y-68761905D02*
X118839895Y-68838095D01*
X118839895Y-68838095D02*
X118877990Y-68914286D01*
X118877990Y-68914286D02*
X118916085Y-68952381D01*
X118916085Y-68952381D02*
X118992276Y-68990476D01*
X118992276Y-68990476D02*
X119144657Y-69028571D01*
X119144657Y-69028571D02*
X119335133Y-69028571D01*
X119335133Y-69028571D02*
X119487514Y-68990476D01*
X119487514Y-68990476D02*
X119563704Y-68952381D01*
X119563704Y-68952381D02*
X119601800Y-68914286D01*
X119601800Y-68914286D02*
X119639895Y-68838095D01*
X119639895Y-68838095D02*
X119639895Y-68761905D01*
X119639895Y-68761905D02*
X119601800Y-68685714D01*
X119601800Y-68685714D02*
X119563704Y-68647619D01*
X119563704Y-68647619D02*
X119487514Y-68609524D01*
X119487514Y-68609524D02*
X119335133Y-68571428D01*
X119335133Y-68571428D02*
X119144657Y-68571428D01*
X119144657Y-68571428D02*
X118992276Y-68609524D01*
X118992276Y-68609524D02*
X118916085Y-68647619D01*
X118916085Y-68647619D02*
X118877990Y-68685714D01*
X118877990Y-68685714D02*
X118839895Y-68761905D01*
X119106561Y-69371429D02*
X119639895Y-69371429D01*
X119182752Y-69371429D02*
X119144657Y-69409524D01*
X119144657Y-69409524D02*
X119106561Y-69485714D01*
X119106561Y-69485714D02*
X119106561Y-69600000D01*
X119106561Y-69600000D02*
X119144657Y-69676191D01*
X119144657Y-69676191D02*
X119220847Y-69714286D01*
X119220847Y-69714286D02*
X119639895Y-69714286D01*
D11*
X120104819Y-74379761D02*
X119628628Y-74046428D01*
X120104819Y-73808333D02*
X119104819Y-73808333D01*
X119104819Y-73808333D02*
X119104819Y-74189285D01*
X119104819Y-74189285D02*
X119152438Y-74284523D01*
X119152438Y-74284523D02*
X119200057Y-74332142D01*
X119200057Y-74332142D02*
X119295295Y-74379761D01*
X119295295Y-74379761D02*
X119438152Y-74379761D01*
X119438152Y-74379761D02*
X119533390Y-74332142D01*
X119533390Y-74332142D02*
X119581009Y-74284523D01*
X119581009Y-74284523D02*
X119628628Y-74189285D01*
X119628628Y-74189285D02*
X119628628Y-73808333D01*
X119104819Y-74665476D02*
X120104819Y-74998809D01*
X120104819Y-74998809D02*
X119104819Y-75332142D01*
X119104819Y-75570238D02*
X119104819Y-76189285D01*
X119104819Y-76189285D02*
X119485771Y-75855952D01*
X119485771Y-75855952D02*
X119485771Y-75998809D01*
X119485771Y-75998809D02*
X119533390Y-76094047D01*
X119533390Y-76094047D02*
X119581009Y-76141666D01*
X119581009Y-76141666D02*
X119676247Y-76189285D01*
X119676247Y-76189285D02*
X119914342Y-76189285D01*
X119914342Y-76189285D02*
X120009580Y-76141666D01*
X120009580Y-76141666D02*
X120057200Y-76094047D01*
X120057200Y-76094047D02*
X120104819Y-75998809D01*
X120104819Y-75998809D02*
X120104819Y-75713095D01*
X120104819Y-75713095D02*
X120057200Y-75617857D01*
X120057200Y-75617857D02*
X120009580Y-75570238D01*
X133517857Y-58404819D02*
X133994047Y-58404819D01*
X133994047Y-58404819D02*
X134041666Y-58881009D01*
X134041666Y-58881009D02*
X133994047Y-58833390D01*
X133994047Y-58833390D02*
X133898809Y-58785771D01*
X133898809Y-58785771D02*
X133660714Y-58785771D01*
X133660714Y-58785771D02*
X133565476Y-58833390D01*
X133565476Y-58833390D02*
X133517857Y-58881009D01*
X133517857Y-58881009D02*
X133470238Y-58976247D01*
X133470238Y-58976247D02*
X133470238Y-59214342D01*
X133470238Y-59214342D02*
X133517857Y-59309580D01*
X133517857Y-59309580D02*
X133565476Y-59357200D01*
X133565476Y-59357200D02*
X133660714Y-59404819D01*
X133660714Y-59404819D02*
X133898809Y-59404819D01*
X133898809Y-59404819D02*
X133994047Y-59357200D01*
X133994047Y-59357200D02*
X134041666Y-59309580D01*
X132517857Y-59404819D02*
X133089285Y-59404819D01*
X132803571Y-59404819D02*
X132803571Y-58404819D01*
X132803571Y-58404819D02*
X132898809Y-58547676D01*
X132898809Y-58547676D02*
X132994047Y-58642914D01*
X132994047Y-58642914D02*
X133089285Y-58690533D01*
X132089285Y-59404819D02*
X132089285Y-58404819D01*
X131994047Y-59023866D02*
X131708333Y-59404819D01*
X131708333Y-58738152D02*
X132089285Y-59119104D01*
X143524819Y-52655952D02*
X143524819Y-52084524D01*
X143524819Y-52370238D02*
X142524819Y-52370238D01*
X142524819Y-52370238D02*
X142667676Y-52275000D01*
X142667676Y-52275000D02*
X142762914Y-52179762D01*
X142762914Y-52179762D02*
X142810533Y-52084524D01*
X143524819Y-53084524D02*
X142524819Y-53084524D01*
X143143866Y-53179762D02*
X143524819Y-53465476D01*
X142858152Y-53465476D02*
X143239104Y-53084524D01*
X157912200Y-78056667D02*
X157959819Y-78199524D01*
X157959819Y-78199524D02*
X157959819Y-78437619D01*
X157959819Y-78437619D02*
X157912200Y-78532857D01*
X157912200Y-78532857D02*
X157864580Y-78580476D01*
X157864580Y-78580476D02*
X157769342Y-78628095D01*
X157769342Y-78628095D02*
X157674104Y-78628095D01*
X157674104Y-78628095D02*
X157578866Y-78580476D01*
X157578866Y-78580476D02*
X157531247Y-78532857D01*
X157531247Y-78532857D02*
X157483628Y-78437619D01*
X157483628Y-78437619D02*
X157436009Y-78247143D01*
X157436009Y-78247143D02*
X157388390Y-78151905D01*
X157388390Y-78151905D02*
X157340771Y-78104286D01*
X157340771Y-78104286D02*
X157245533Y-78056667D01*
X157245533Y-78056667D02*
X157150295Y-78056667D01*
X157150295Y-78056667D02*
X157055057Y-78104286D01*
X157055057Y-78104286D02*
X157007438Y-78151905D01*
X157007438Y-78151905D02*
X156959819Y-78247143D01*
X156959819Y-78247143D02*
X156959819Y-78485238D01*
X156959819Y-78485238D02*
X157007438Y-78628095D01*
X156959819Y-78961429D02*
X157959819Y-79199524D01*
X157959819Y-79199524D02*
X157245533Y-79390000D01*
X157245533Y-79390000D02*
X157959819Y-79580476D01*
X157959819Y-79580476D02*
X156959819Y-79818572D01*
X156959819Y-80104286D02*
X156959819Y-80723333D01*
X156959819Y-80723333D02*
X157340771Y-80390000D01*
X157340771Y-80390000D02*
X157340771Y-80532857D01*
X157340771Y-80532857D02*
X157388390Y-80628095D01*
X157388390Y-80628095D02*
X157436009Y-80675714D01*
X157436009Y-80675714D02*
X157531247Y-80723333D01*
X157531247Y-80723333D02*
X157769342Y-80723333D01*
X157769342Y-80723333D02*
X157864580Y-80675714D01*
X157864580Y-80675714D02*
X157912200Y-80628095D01*
X157912200Y-80628095D02*
X157959819Y-80532857D01*
X157959819Y-80532857D02*
X157959819Y-80247143D01*
X157959819Y-80247143D02*
X157912200Y-80151905D01*
X157912200Y-80151905D02*
X157864580Y-80104286D01*
X120679580Y-47280952D02*
X120727200Y-47233333D01*
X120727200Y-47233333D02*
X120774819Y-47090476D01*
X120774819Y-47090476D02*
X120774819Y-46995238D01*
X120774819Y-46995238D02*
X120727200Y-46852381D01*
X120727200Y-46852381D02*
X120631961Y-46757143D01*
X120631961Y-46757143D02*
X120536723Y-46709524D01*
X120536723Y-46709524D02*
X120346247Y-46661905D01*
X120346247Y-46661905D02*
X120203390Y-46661905D01*
X120203390Y-46661905D02*
X120012914Y-46709524D01*
X120012914Y-46709524D02*
X119917676Y-46757143D01*
X119917676Y-46757143D02*
X119822438Y-46852381D01*
X119822438Y-46852381D02*
X119774819Y-46995238D01*
X119774819Y-46995238D02*
X119774819Y-47090476D01*
X119774819Y-47090476D02*
X119822438Y-47233333D01*
X119822438Y-47233333D02*
X119870057Y-47280952D01*
X120108152Y-48138095D02*
X120774819Y-48138095D01*
X119727200Y-47900000D02*
X120441485Y-47661905D01*
X120441485Y-47661905D02*
X120441485Y-48280952D01*
X119774819Y-48852381D02*
X119774819Y-48947619D01*
X119774819Y-48947619D02*
X119822438Y-49042857D01*
X119822438Y-49042857D02*
X119870057Y-49090476D01*
X119870057Y-49090476D02*
X119965295Y-49138095D01*
X119965295Y-49138095D02*
X120155771Y-49185714D01*
X120155771Y-49185714D02*
X120393866Y-49185714D01*
X120393866Y-49185714D02*
X120584342Y-49138095D01*
X120584342Y-49138095D02*
X120679580Y-49090476D01*
X120679580Y-49090476D02*
X120727200Y-49042857D01*
X120727200Y-49042857D02*
X120774819Y-48947619D01*
X120774819Y-48947619D02*
X120774819Y-48852381D01*
X120774819Y-48852381D02*
X120727200Y-48757143D01*
X120727200Y-48757143D02*
X120679580Y-48709524D01*
X120679580Y-48709524D02*
X120584342Y-48661905D01*
X120584342Y-48661905D02*
X120393866Y-48614286D01*
X120393866Y-48614286D02*
X120155771Y-48614286D01*
X120155771Y-48614286D02*
X119965295Y-48661905D01*
X119965295Y-48661905D02*
X119870057Y-48709524D01*
X119870057Y-48709524D02*
X119822438Y-48757143D01*
X119822438Y-48757143D02*
X119774819Y-48852381D01*
X119774819Y-49519048D02*
X119774819Y-50138095D01*
X119774819Y-50138095D02*
X120155771Y-49804762D01*
X120155771Y-49804762D02*
X120155771Y-49947619D01*
X120155771Y-49947619D02*
X120203390Y-50042857D01*
X120203390Y-50042857D02*
X120251009Y-50090476D01*
X120251009Y-50090476D02*
X120346247Y-50138095D01*
X120346247Y-50138095D02*
X120584342Y-50138095D01*
X120584342Y-50138095D02*
X120679580Y-50090476D01*
X120679580Y-50090476D02*
X120727200Y-50042857D01*
X120727200Y-50042857D02*
X120774819Y-49947619D01*
X120774819Y-49947619D02*
X120774819Y-49661905D01*
X120774819Y-49661905D02*
X120727200Y-49566667D01*
X120727200Y-49566667D02*
X120679580Y-49519048D01*
X123513152Y-46373809D02*
X124179819Y-46373809D01*
X123132200Y-46135714D02*
X123846485Y-45897619D01*
X123846485Y-45897619D02*
X123846485Y-46516666D01*
X124084580Y-46897619D02*
X124132200Y-46945238D01*
X124132200Y-46945238D02*
X124179819Y-46897619D01*
X124179819Y-46897619D02*
X124132200Y-46850000D01*
X124132200Y-46850000D02*
X124084580Y-46897619D01*
X124084580Y-46897619D02*
X124179819Y-46897619D01*
X123179819Y-47278571D02*
X123179819Y-47945237D01*
X123179819Y-47945237D02*
X124179819Y-47516666D01*
X123513152Y-48754761D02*
X124179819Y-48754761D01*
X123513152Y-48326190D02*
X124036961Y-48326190D01*
X124036961Y-48326190D02*
X124132200Y-48373809D01*
X124132200Y-48373809D02*
X124179819Y-48469047D01*
X124179819Y-48469047D02*
X124179819Y-48611904D01*
X124179819Y-48611904D02*
X124132200Y-48707142D01*
X124132200Y-48707142D02*
X124084580Y-48754761D01*
X123933125Y-88970623D02*
X123963638Y-89062164D01*
X123963638Y-89062164D02*
X123963638Y-89214731D01*
X123963638Y-89214731D02*
X123933125Y-89275758D01*
X123933125Y-89275758D02*
X123902611Y-89306271D01*
X123902611Y-89306271D02*
X123841584Y-89336784D01*
X123841584Y-89336784D02*
X123780557Y-89336784D01*
X123780557Y-89336784D02*
X123719531Y-89306271D01*
X123719531Y-89306271D02*
X123689017Y-89275758D01*
X123689017Y-89275758D02*
X123658504Y-89214731D01*
X123658504Y-89214731D02*
X123627990Y-89092677D01*
X123627990Y-89092677D02*
X123597477Y-89031650D01*
X123597477Y-89031650D02*
X123566963Y-89001137D01*
X123566963Y-89001137D02*
X123505937Y-88970623D01*
X123505937Y-88970623D02*
X123444910Y-88970623D01*
X123444910Y-88970623D02*
X123383883Y-89001137D01*
X123383883Y-89001137D02*
X123353369Y-89031650D01*
X123353369Y-89031650D02*
X123322856Y-89092677D01*
X123322856Y-89092677D02*
X123322856Y-89245244D01*
X123322856Y-89245244D02*
X123353369Y-89336784D01*
X123322856Y-89550379D02*
X123963638Y-89702946D01*
X123963638Y-89702946D02*
X123505937Y-89825000D01*
X123505937Y-89825000D02*
X123963638Y-89947053D01*
X123963638Y-89947053D02*
X123322856Y-90099621D01*
X123963638Y-90679375D02*
X123963638Y-90313214D01*
X123963638Y-90496295D02*
X123322856Y-90496295D01*
X123322856Y-90496295D02*
X123414396Y-90435268D01*
X123414396Y-90435268D02*
X123475423Y-90374241D01*
X123475423Y-90374241D02*
X123505937Y-90313214D01*
X152449784Y-42671338D02*
X152358244Y-42701851D01*
X152358244Y-42701851D02*
X152205676Y-42701851D01*
X152205676Y-42701851D02*
X152144650Y-42671338D01*
X152144650Y-42671338D02*
X152114136Y-42640824D01*
X152114136Y-42640824D02*
X152083623Y-42579797D01*
X152083623Y-42579797D02*
X152083623Y-42518770D01*
X152083623Y-42518770D02*
X152114136Y-42457744D01*
X152114136Y-42457744D02*
X152144650Y-42427230D01*
X152144650Y-42427230D02*
X152205676Y-42396717D01*
X152205676Y-42396717D02*
X152327730Y-42366203D01*
X152327730Y-42366203D02*
X152388757Y-42335690D01*
X152388757Y-42335690D02*
X152419270Y-42305176D01*
X152419270Y-42305176D02*
X152449784Y-42244150D01*
X152449784Y-42244150D02*
X152449784Y-42183123D01*
X152449784Y-42183123D02*
X152419270Y-42122096D01*
X152419270Y-42122096D02*
X152388757Y-42091582D01*
X152388757Y-42091582D02*
X152327730Y-42061069D01*
X152327730Y-42061069D02*
X152175163Y-42061069D01*
X152175163Y-42061069D02*
X152083623Y-42091582D01*
X151870028Y-42061069D02*
X151717461Y-42701851D01*
X151717461Y-42701851D02*
X151595407Y-42244150D01*
X151595407Y-42244150D02*
X151473354Y-42701851D01*
X151473354Y-42701851D02*
X151320787Y-42061069D01*
X150771545Y-42061069D02*
X151076679Y-42061069D01*
X151076679Y-42061069D02*
X151107193Y-42366203D01*
X151107193Y-42366203D02*
X151076679Y-42335690D01*
X151076679Y-42335690D02*
X151015653Y-42305176D01*
X151015653Y-42305176D02*
X150863085Y-42305176D01*
X150863085Y-42305176D02*
X150802059Y-42335690D01*
X150802059Y-42335690D02*
X150771545Y-42366203D01*
X150771545Y-42366203D02*
X150741032Y-42427230D01*
X150741032Y-42427230D02*
X150741032Y-42579797D01*
X150741032Y-42579797D02*
X150771545Y-42640824D01*
X150771545Y-42640824D02*
X150802059Y-42671338D01*
X150802059Y-42671338D02*
X150863085Y-42701851D01*
X150863085Y-42701851D02*
X151015653Y-42701851D01*
X151015653Y-42701851D02*
X151076679Y-42671338D01*
X151076679Y-42671338D02*
X151107193Y-42640824D01*
X134054819Y-53032142D02*
X134054819Y-52460714D01*
X134054819Y-52746428D02*
X133054819Y-52746428D01*
X133054819Y-52746428D02*
X133197676Y-52651190D01*
X133197676Y-52651190D02*
X133292914Y-52555952D01*
X133292914Y-52555952D02*
X133340533Y-52460714D01*
X133054819Y-53651190D02*
X133054819Y-53746428D01*
X133054819Y-53746428D02*
X133102438Y-53841666D01*
X133102438Y-53841666D02*
X133150057Y-53889285D01*
X133150057Y-53889285D02*
X133245295Y-53936904D01*
X133245295Y-53936904D02*
X133435771Y-53984523D01*
X133435771Y-53984523D02*
X133673866Y-53984523D01*
X133673866Y-53984523D02*
X133864342Y-53936904D01*
X133864342Y-53936904D02*
X133959580Y-53889285D01*
X133959580Y-53889285D02*
X134007200Y-53841666D01*
X134007200Y-53841666D02*
X134054819Y-53746428D01*
X134054819Y-53746428D02*
X134054819Y-53651190D01*
X134054819Y-53651190D02*
X134007200Y-53555952D01*
X134007200Y-53555952D02*
X133959580Y-53508333D01*
X133959580Y-53508333D02*
X133864342Y-53460714D01*
X133864342Y-53460714D02*
X133673866Y-53413095D01*
X133673866Y-53413095D02*
X133435771Y-53413095D01*
X133435771Y-53413095D02*
X133245295Y-53460714D01*
X133245295Y-53460714D02*
X133150057Y-53508333D01*
X133150057Y-53508333D02*
X133102438Y-53555952D01*
X133102438Y-53555952D02*
X133054819Y-53651190D01*
X133388152Y-54841666D02*
X134054819Y-54841666D01*
X133388152Y-54413095D02*
X133911961Y-54413095D01*
X133911961Y-54413095D02*
X134007200Y-54460714D01*
X134007200Y-54460714D02*
X134054819Y-54555952D01*
X134054819Y-54555952D02*
X134054819Y-54698809D01*
X134054819Y-54698809D02*
X134007200Y-54794047D01*
X134007200Y-54794047D02*
X133959580Y-54841666D01*
X129662810Y-57575057D02*
X129615191Y-57527438D01*
X129615191Y-57527438D02*
X129519953Y-57479819D01*
X129519953Y-57479819D02*
X129281858Y-57479819D01*
X129281858Y-57479819D02*
X129186620Y-57527438D01*
X129186620Y-57527438D02*
X129139001Y-57575057D01*
X129139001Y-57575057D02*
X129091382Y-57670295D01*
X129091382Y-57670295D02*
X129091382Y-57765533D01*
X129091382Y-57765533D02*
X129139001Y-57908390D01*
X129139001Y-57908390D02*
X129710429Y-58479819D01*
X129710429Y-58479819D02*
X129091382Y-58479819D01*
X128710429Y-57575057D02*
X128662810Y-57527438D01*
X128662810Y-57527438D02*
X128567572Y-57479819D01*
X128567572Y-57479819D02*
X128329477Y-57479819D01*
X128329477Y-57479819D02*
X128234239Y-57527438D01*
X128234239Y-57527438D02*
X128186620Y-57575057D01*
X128186620Y-57575057D02*
X128139001Y-57670295D01*
X128139001Y-57670295D02*
X128139001Y-57765533D01*
X128139001Y-57765533D02*
X128186620Y-57908390D01*
X128186620Y-57908390D02*
X128758048Y-58479819D01*
X128758048Y-58479819D02*
X128139001Y-58479819D01*
X127281858Y-57813152D02*
X127281858Y-58479819D01*
X127710429Y-57813152D02*
X127710429Y-58336961D01*
X127710429Y-58336961D02*
X127662810Y-58432200D01*
X127662810Y-58432200D02*
X127567572Y-58479819D01*
X127567572Y-58479819D02*
X127424715Y-58479819D01*
X127424715Y-58479819D02*
X127329477Y-58432200D01*
X127329477Y-58432200D02*
X127281858Y-58384580D01*
D10*
X118539895Y-67492856D02*
X118539895Y-67035713D01*
X118539895Y-67264285D02*
X117739895Y-67264285D01*
X117739895Y-67264285D02*
X117854180Y-67188094D01*
X117854180Y-67188094D02*
X117930371Y-67111904D01*
X117930371Y-67111904D02*
X117968466Y-67035713D01*
X117739895Y-67988095D02*
X117739895Y-68064285D01*
X117739895Y-68064285D02*
X117777990Y-68140476D01*
X117777990Y-68140476D02*
X117816085Y-68178571D01*
X117816085Y-68178571D02*
X117892276Y-68216666D01*
X117892276Y-68216666D02*
X118044657Y-68254761D01*
X118044657Y-68254761D02*
X118235133Y-68254761D01*
X118235133Y-68254761D02*
X118387514Y-68216666D01*
X118387514Y-68216666D02*
X118463704Y-68178571D01*
X118463704Y-68178571D02*
X118501800Y-68140476D01*
X118501800Y-68140476D02*
X118539895Y-68064285D01*
X118539895Y-68064285D02*
X118539895Y-67988095D01*
X118539895Y-67988095D02*
X118501800Y-67911904D01*
X118501800Y-67911904D02*
X118463704Y-67873809D01*
X118463704Y-67873809D02*
X118387514Y-67835714D01*
X118387514Y-67835714D02*
X118235133Y-67797618D01*
X118235133Y-67797618D02*
X118044657Y-67797618D01*
X118044657Y-67797618D02*
X117892276Y-67835714D01*
X117892276Y-67835714D02*
X117816085Y-67873809D01*
X117816085Y-67873809D02*
X117777990Y-67911904D01*
X117777990Y-67911904D02*
X117739895Y-67988095D01*
X117739895Y-68750000D02*
X117739895Y-68826190D01*
X117739895Y-68826190D02*
X117777990Y-68902381D01*
X117777990Y-68902381D02*
X117816085Y-68940476D01*
X117816085Y-68940476D02*
X117892276Y-68978571D01*
X117892276Y-68978571D02*
X118044657Y-69016666D01*
X118044657Y-69016666D02*
X118235133Y-69016666D01*
X118235133Y-69016666D02*
X118387514Y-68978571D01*
X118387514Y-68978571D02*
X118463704Y-68940476D01*
X118463704Y-68940476D02*
X118501800Y-68902381D01*
X118501800Y-68902381D02*
X118539895Y-68826190D01*
X118539895Y-68826190D02*
X118539895Y-68750000D01*
X118539895Y-68750000D02*
X118501800Y-68673809D01*
X118501800Y-68673809D02*
X118463704Y-68635714D01*
X118463704Y-68635714D02*
X118387514Y-68597619D01*
X118387514Y-68597619D02*
X118235133Y-68559523D01*
X118235133Y-68559523D02*
X118044657Y-68559523D01*
X118044657Y-68559523D02*
X117892276Y-68597619D01*
X117892276Y-68597619D02*
X117816085Y-68635714D01*
X117816085Y-68635714D02*
X117777990Y-68673809D01*
X117777990Y-68673809D02*
X117739895Y-68750000D01*
X118539895Y-69359524D02*
X117739895Y-69359524D01*
X118235133Y-69435714D02*
X118539895Y-69664286D01*
X118006561Y-69664286D02*
X118311323Y-69359524D01*
D11*
X146742857Y-80259580D02*
X146790476Y-80307200D01*
X146790476Y-80307200D02*
X146933333Y-80354819D01*
X146933333Y-80354819D02*
X147028571Y-80354819D01*
X147028571Y-80354819D02*
X147171428Y-80307200D01*
X147171428Y-80307200D02*
X147266666Y-80211961D01*
X147266666Y-80211961D02*
X147314285Y-80116723D01*
X147314285Y-80116723D02*
X147361904Y-79926247D01*
X147361904Y-79926247D02*
X147361904Y-79783390D01*
X147361904Y-79783390D02*
X147314285Y-79592914D01*
X147314285Y-79592914D02*
X147266666Y-79497676D01*
X147266666Y-79497676D02*
X147171428Y-79402438D01*
X147171428Y-79402438D02*
X147028571Y-79354819D01*
X147028571Y-79354819D02*
X146933333Y-79354819D01*
X146933333Y-79354819D02*
X146790476Y-79402438D01*
X146790476Y-79402438D02*
X146742857Y-79450057D01*
X145790476Y-80354819D02*
X146361904Y-80354819D01*
X146076190Y-80354819D02*
X146076190Y-79354819D01*
X146076190Y-79354819D02*
X146171428Y-79497676D01*
X146171428Y-79497676D02*
X146266666Y-79592914D01*
X146266666Y-79592914D02*
X146361904Y-79640533D01*
X145409523Y-79450057D02*
X145361904Y-79402438D01*
X145361904Y-79402438D02*
X145266666Y-79354819D01*
X145266666Y-79354819D02*
X145028571Y-79354819D01*
X145028571Y-79354819D02*
X144933333Y-79402438D01*
X144933333Y-79402438D02*
X144885714Y-79450057D01*
X144885714Y-79450057D02*
X144838095Y-79545295D01*
X144838095Y-79545295D02*
X144838095Y-79640533D01*
X144838095Y-79640533D02*
X144885714Y-79783390D01*
X144885714Y-79783390D02*
X145457142Y-80354819D01*
X145457142Y-80354819D02*
X144838095Y-80354819D01*
X148804819Y-77430952D02*
X148804819Y-76859524D01*
X148804819Y-77145238D02*
X147804819Y-77145238D01*
X147804819Y-77145238D02*
X147947676Y-77050000D01*
X147947676Y-77050000D02*
X148042914Y-76954762D01*
X148042914Y-76954762D02*
X148090533Y-76859524D01*
X147804819Y-78050000D02*
X147804819Y-78145238D01*
X147804819Y-78145238D02*
X147852438Y-78240476D01*
X147852438Y-78240476D02*
X147900057Y-78288095D01*
X147900057Y-78288095D02*
X147995295Y-78335714D01*
X147995295Y-78335714D02*
X148185771Y-78383333D01*
X148185771Y-78383333D02*
X148423866Y-78383333D01*
X148423866Y-78383333D02*
X148614342Y-78335714D01*
X148614342Y-78335714D02*
X148709580Y-78288095D01*
X148709580Y-78288095D02*
X148757200Y-78240476D01*
X148757200Y-78240476D02*
X148804819Y-78145238D01*
X148804819Y-78145238D02*
X148804819Y-78050000D01*
X148804819Y-78050000D02*
X148757200Y-77954762D01*
X148757200Y-77954762D02*
X148709580Y-77907143D01*
X148709580Y-77907143D02*
X148614342Y-77859524D01*
X148614342Y-77859524D02*
X148423866Y-77811905D01*
X148423866Y-77811905D02*
X148185771Y-77811905D01*
X148185771Y-77811905D02*
X147995295Y-77859524D01*
X147995295Y-77859524D02*
X147900057Y-77907143D01*
X147900057Y-77907143D02*
X147852438Y-77954762D01*
X147852438Y-77954762D02*
X147804819Y-78050000D01*
X147804819Y-79002381D02*
X147804819Y-79097619D01*
X147804819Y-79097619D02*
X147852438Y-79192857D01*
X147852438Y-79192857D02*
X147900057Y-79240476D01*
X147900057Y-79240476D02*
X147995295Y-79288095D01*
X147995295Y-79288095D02*
X148185771Y-79335714D01*
X148185771Y-79335714D02*
X148423866Y-79335714D01*
X148423866Y-79335714D02*
X148614342Y-79288095D01*
X148614342Y-79288095D02*
X148709580Y-79240476D01*
X148709580Y-79240476D02*
X148757200Y-79192857D01*
X148757200Y-79192857D02*
X148804819Y-79097619D01*
X148804819Y-79097619D02*
X148804819Y-79002381D01*
X148804819Y-79002381D02*
X148757200Y-78907143D01*
X148757200Y-78907143D02*
X148709580Y-78859524D01*
X148709580Y-78859524D02*
X148614342Y-78811905D01*
X148614342Y-78811905D02*
X148423866Y-78764286D01*
X148423866Y-78764286D02*
X148185771Y-78764286D01*
X148185771Y-78764286D02*
X147995295Y-78811905D01*
X147995295Y-78811905D02*
X147900057Y-78859524D01*
X147900057Y-78859524D02*
X147852438Y-78907143D01*
X147852438Y-78907143D02*
X147804819Y-79002381D01*
X148138152Y-79764286D02*
X148804819Y-79764286D01*
X148233390Y-79764286D02*
X148185771Y-79811905D01*
X148185771Y-79811905D02*
X148138152Y-79907143D01*
X148138152Y-79907143D02*
X148138152Y-80050000D01*
X148138152Y-80050000D02*
X148185771Y-80145238D01*
X148185771Y-80145238D02*
X148281009Y-80192857D01*
X148281009Y-80192857D02*
X148804819Y-80192857D01*
X134179819Y-88929761D02*
X134179819Y-88358333D01*
X134179819Y-88644047D02*
X133179819Y-88644047D01*
X133179819Y-88644047D02*
X133322676Y-88548809D01*
X133322676Y-88548809D02*
X133417914Y-88453571D01*
X133417914Y-88453571D02*
X133465533Y-88358333D01*
X133179819Y-89548809D02*
X133179819Y-89644047D01*
X133179819Y-89644047D02*
X133227438Y-89739285D01*
X133227438Y-89739285D02*
X133275057Y-89786904D01*
X133275057Y-89786904D02*
X133370295Y-89834523D01*
X133370295Y-89834523D02*
X133560771Y-89882142D01*
X133560771Y-89882142D02*
X133798866Y-89882142D01*
X133798866Y-89882142D02*
X133989342Y-89834523D01*
X133989342Y-89834523D02*
X134084580Y-89786904D01*
X134084580Y-89786904D02*
X134132200Y-89739285D01*
X134132200Y-89739285D02*
X134179819Y-89644047D01*
X134179819Y-89644047D02*
X134179819Y-89548809D01*
X134179819Y-89548809D02*
X134132200Y-89453571D01*
X134132200Y-89453571D02*
X134084580Y-89405952D01*
X134084580Y-89405952D02*
X133989342Y-89358333D01*
X133989342Y-89358333D02*
X133798866Y-89310714D01*
X133798866Y-89310714D02*
X133560771Y-89310714D01*
X133560771Y-89310714D02*
X133370295Y-89358333D01*
X133370295Y-89358333D02*
X133275057Y-89405952D01*
X133275057Y-89405952D02*
X133227438Y-89453571D01*
X133227438Y-89453571D02*
X133179819Y-89548809D01*
X134179819Y-90310714D02*
X133179819Y-90310714D01*
X133798866Y-90405952D02*
X134179819Y-90691666D01*
X133513152Y-90691666D02*
X133894104Y-90310714D01*
X119829819Y-70854761D02*
X119353628Y-70521428D01*
X119829819Y-70283333D02*
X118829819Y-70283333D01*
X118829819Y-70283333D02*
X118829819Y-70664285D01*
X118829819Y-70664285D02*
X118877438Y-70759523D01*
X118877438Y-70759523D02*
X118925057Y-70807142D01*
X118925057Y-70807142D02*
X119020295Y-70854761D01*
X119020295Y-70854761D02*
X119163152Y-70854761D01*
X119163152Y-70854761D02*
X119258390Y-70807142D01*
X119258390Y-70807142D02*
X119306009Y-70759523D01*
X119306009Y-70759523D02*
X119353628Y-70664285D01*
X119353628Y-70664285D02*
X119353628Y-70283333D01*
X118829819Y-71140476D02*
X119829819Y-71473809D01*
X119829819Y-71473809D02*
X118829819Y-71807142D01*
X119163152Y-72569047D02*
X119829819Y-72569047D01*
X118782200Y-72330952D02*
X119496485Y-72092857D01*
X119496485Y-72092857D02*
X119496485Y-72711904D01*
X123944047Y-78504819D02*
X124515475Y-78504819D01*
X124229761Y-78504819D02*
X124229761Y-77504819D01*
X124229761Y-77504819D02*
X124324999Y-77647676D01*
X124324999Y-77647676D02*
X124420237Y-77742914D01*
X124420237Y-77742914D02*
X124515475Y-77790533D01*
X123324999Y-77504819D02*
X123229761Y-77504819D01*
X123229761Y-77504819D02*
X123134523Y-77552438D01*
X123134523Y-77552438D02*
X123086904Y-77600057D01*
X123086904Y-77600057D02*
X123039285Y-77695295D01*
X123039285Y-77695295D02*
X122991666Y-77885771D01*
X122991666Y-77885771D02*
X122991666Y-78123866D01*
X122991666Y-78123866D02*
X123039285Y-78314342D01*
X123039285Y-78314342D02*
X123086904Y-78409580D01*
X123086904Y-78409580D02*
X123134523Y-78457200D01*
X123134523Y-78457200D02*
X123229761Y-78504819D01*
X123229761Y-78504819D02*
X123324999Y-78504819D01*
X123324999Y-78504819D02*
X123420237Y-78457200D01*
X123420237Y-78457200D02*
X123467856Y-78409580D01*
X123467856Y-78409580D02*
X123515475Y-78314342D01*
X123515475Y-78314342D02*
X123563094Y-78123866D01*
X123563094Y-78123866D02*
X123563094Y-77885771D01*
X123563094Y-77885771D02*
X123515475Y-77695295D01*
X123515475Y-77695295D02*
X123467856Y-77600057D01*
X123467856Y-77600057D02*
X123420237Y-77552438D01*
X123420237Y-77552438D02*
X123324999Y-77504819D01*
X122372618Y-77504819D02*
X122277380Y-77504819D01*
X122277380Y-77504819D02*
X122182142Y-77552438D01*
X122182142Y-77552438D02*
X122134523Y-77600057D01*
X122134523Y-77600057D02*
X122086904Y-77695295D01*
X122086904Y-77695295D02*
X122039285Y-77885771D01*
X122039285Y-77885771D02*
X122039285Y-78123866D01*
X122039285Y-78123866D02*
X122086904Y-78314342D01*
X122086904Y-78314342D02*
X122134523Y-78409580D01*
X122134523Y-78409580D02*
X122182142Y-78457200D01*
X122182142Y-78457200D02*
X122277380Y-78504819D01*
X122277380Y-78504819D02*
X122372618Y-78504819D01*
X122372618Y-78504819D02*
X122467856Y-78457200D01*
X122467856Y-78457200D02*
X122515475Y-78409580D01*
X122515475Y-78409580D02*
X122563094Y-78314342D01*
X122563094Y-78314342D02*
X122610713Y-78123866D01*
X122610713Y-78123866D02*
X122610713Y-77885771D01*
X122610713Y-77885771D02*
X122563094Y-77695295D01*
X122563094Y-77695295D02*
X122515475Y-77600057D01*
X122515475Y-77600057D02*
X122467856Y-77552438D01*
X122467856Y-77552438D02*
X122372618Y-77504819D01*
X121610713Y-77838152D02*
X121610713Y-78504819D01*
X121610713Y-77933390D02*
X121563094Y-77885771D01*
X121563094Y-77885771D02*
X121467856Y-77838152D01*
X121467856Y-77838152D02*
X121324999Y-77838152D01*
X121324999Y-77838152D02*
X121229761Y-77885771D01*
X121229761Y-77885771D02*
X121182142Y-77981009D01*
X121182142Y-77981009D02*
X121182142Y-78504819D01*
D12*
X139731119Y-51744047D02*
X139731119Y-51267857D01*
X139731119Y-51267857D02*
X140207309Y-51220238D01*
X140207309Y-51220238D02*
X140159690Y-51267857D01*
X140159690Y-51267857D02*
X140112071Y-51363095D01*
X140112071Y-51363095D02*
X140112071Y-51601190D01*
X140112071Y-51601190D02*
X140159690Y-51696428D01*
X140159690Y-51696428D02*
X140207309Y-51744047D01*
X140207309Y-51744047D02*
X140302547Y-51791666D01*
X140302547Y-51791666D02*
X140540642Y-51791666D01*
X140540642Y-51791666D02*
X140635880Y-51744047D01*
X140635880Y-51744047D02*
X140683500Y-51696428D01*
X140683500Y-51696428D02*
X140731119Y-51601190D01*
X140731119Y-51601190D02*
X140731119Y-51363095D01*
X140731119Y-51363095D02*
X140683500Y-51267857D01*
X140683500Y-51267857D02*
X140635880Y-51220238D01*
X140635880Y-52220238D02*
X140683500Y-52267857D01*
X140683500Y-52267857D02*
X140731119Y-52220238D01*
X140731119Y-52220238D02*
X140683500Y-52172619D01*
X140683500Y-52172619D02*
X140635880Y-52220238D01*
X140635880Y-52220238D02*
X140731119Y-52220238D01*
X140731119Y-53220237D02*
X140731119Y-52648809D01*
X140731119Y-52934523D02*
X139731119Y-52934523D01*
X139731119Y-52934523D02*
X139873976Y-52839285D01*
X139873976Y-52839285D02*
X139969214Y-52744047D01*
X139969214Y-52744047D02*
X140016833Y-52648809D01*
X140731119Y-53648809D02*
X139731119Y-53648809D01*
X140350166Y-53744047D02*
X140731119Y-54029761D01*
X140064452Y-54029761D02*
X140445404Y-53648809D01*
D11*
X136982143Y-63112295D02*
X137439286Y-63112295D01*
X137210714Y-63112295D02*
X137210714Y-62312295D01*
X137210714Y-62312295D02*
X137286905Y-62426580D01*
X137286905Y-62426580D02*
X137363095Y-62502771D01*
X137363095Y-62502771D02*
X137439286Y-62540866D01*
X136296428Y-62312295D02*
X136448809Y-62312295D01*
X136448809Y-62312295D02*
X136525000Y-62350390D01*
X136525000Y-62350390D02*
X136563095Y-62388485D01*
X136563095Y-62388485D02*
X136639285Y-62502771D01*
X136639285Y-62502771D02*
X136677381Y-62655152D01*
X136677381Y-62655152D02*
X136677381Y-62959914D01*
X136677381Y-62959914D02*
X136639285Y-63036104D01*
X136639285Y-63036104D02*
X136601190Y-63074200D01*
X136601190Y-63074200D02*
X136525000Y-63112295D01*
X136525000Y-63112295D02*
X136372619Y-63112295D01*
X136372619Y-63112295D02*
X136296428Y-63074200D01*
X136296428Y-63074200D02*
X136258333Y-63036104D01*
X136258333Y-63036104D02*
X136220238Y-62959914D01*
X136220238Y-62959914D02*
X136220238Y-62769438D01*
X136220238Y-62769438D02*
X136258333Y-62693247D01*
X136258333Y-62693247D02*
X136296428Y-62655152D01*
X136296428Y-62655152D02*
X136372619Y-62617057D01*
X136372619Y-62617057D02*
X136525000Y-62617057D01*
X136525000Y-62617057D02*
X136601190Y-62655152D01*
X136601190Y-62655152D02*
X136639285Y-62693247D01*
X136639285Y-62693247D02*
X136677381Y-62769438D01*
X135724999Y-62312295D02*
X135648809Y-62312295D01*
X135648809Y-62312295D02*
X135572618Y-62350390D01*
X135572618Y-62350390D02*
X135534523Y-62388485D01*
X135534523Y-62388485D02*
X135496428Y-62464676D01*
X135496428Y-62464676D02*
X135458333Y-62617057D01*
X135458333Y-62617057D02*
X135458333Y-62807533D01*
X135458333Y-62807533D02*
X135496428Y-62959914D01*
X135496428Y-62959914D02*
X135534523Y-63036104D01*
X135534523Y-63036104D02*
X135572618Y-63074200D01*
X135572618Y-63074200D02*
X135648809Y-63112295D01*
X135648809Y-63112295D02*
X135724999Y-63112295D01*
X135724999Y-63112295D02*
X135801190Y-63074200D01*
X135801190Y-63074200D02*
X135839285Y-63036104D01*
X135839285Y-63036104D02*
X135877380Y-62959914D01*
X135877380Y-62959914D02*
X135915476Y-62807533D01*
X135915476Y-62807533D02*
X135915476Y-62617057D01*
X135915476Y-62617057D02*
X135877380Y-62464676D01*
X135877380Y-62464676D02*
X135839285Y-62388485D01*
X135839285Y-62388485D02*
X135801190Y-62350390D01*
X135801190Y-62350390D02*
X135724999Y-62312295D01*
X135115475Y-63112295D02*
X135115475Y-62312295D01*
X135039285Y-62807533D02*
X134810713Y-63112295D01*
X134810713Y-62578961D02*
X135115475Y-62883723D01*
X129455057Y-53759524D02*
X129407438Y-53807143D01*
X129407438Y-53807143D02*
X129359819Y-53902381D01*
X129359819Y-53902381D02*
X129359819Y-54140476D01*
X129359819Y-54140476D02*
X129407438Y-54235714D01*
X129407438Y-54235714D02*
X129455057Y-54283333D01*
X129455057Y-54283333D02*
X129550295Y-54330952D01*
X129550295Y-54330952D02*
X129645533Y-54330952D01*
X129645533Y-54330952D02*
X129788390Y-54283333D01*
X129788390Y-54283333D02*
X130359819Y-53711905D01*
X130359819Y-53711905D02*
X130359819Y-54330952D01*
X130359819Y-54759524D02*
X129359819Y-54759524D01*
X129978866Y-54854762D02*
X130359819Y-55140476D01*
X129693152Y-55140476D02*
X130074104Y-54759524D01*
X137900057Y-89882143D02*
X137852438Y-89929762D01*
X137852438Y-89929762D02*
X137804819Y-90025000D01*
X137804819Y-90025000D02*
X137804819Y-90263095D01*
X137804819Y-90263095D02*
X137852438Y-90358333D01*
X137852438Y-90358333D02*
X137900057Y-90405952D01*
X137900057Y-90405952D02*
X137995295Y-90453571D01*
X137995295Y-90453571D02*
X138090533Y-90453571D01*
X138090533Y-90453571D02*
X138233390Y-90405952D01*
X138233390Y-90405952D02*
X138804819Y-89834524D01*
X138804819Y-89834524D02*
X138804819Y-90453571D01*
X137804819Y-90786905D02*
X137804819Y-91453571D01*
X137804819Y-91453571D02*
X138804819Y-91025000D01*
X138138152Y-91834524D02*
X139138152Y-91834524D01*
X138185771Y-91834524D02*
X138138152Y-91929762D01*
X138138152Y-91929762D02*
X138138152Y-92120238D01*
X138138152Y-92120238D02*
X138185771Y-92215476D01*
X138185771Y-92215476D02*
X138233390Y-92263095D01*
X138233390Y-92263095D02*
X138328628Y-92310714D01*
X138328628Y-92310714D02*
X138614342Y-92310714D01*
X138614342Y-92310714D02*
X138709580Y-92263095D01*
X138709580Y-92263095D02*
X138757200Y-92215476D01*
X138757200Y-92215476D02*
X138804819Y-92120238D01*
X138804819Y-92120238D02*
X138804819Y-91929762D01*
X138804819Y-91929762D02*
X138757200Y-91834524D01*
X138281009Y-93072619D02*
X138281009Y-92739286D01*
X138804819Y-92739286D02*
X137804819Y-92739286D01*
X137804819Y-92739286D02*
X137804819Y-93215476D01*
X148125057Y-85532143D02*
X148077438Y-85579762D01*
X148077438Y-85579762D02*
X148029819Y-85675000D01*
X148029819Y-85675000D02*
X148029819Y-85913095D01*
X148029819Y-85913095D02*
X148077438Y-86008333D01*
X148077438Y-86008333D02*
X148125057Y-86055952D01*
X148125057Y-86055952D02*
X148220295Y-86103571D01*
X148220295Y-86103571D02*
X148315533Y-86103571D01*
X148315533Y-86103571D02*
X148458390Y-86055952D01*
X148458390Y-86055952D02*
X149029819Y-85484524D01*
X149029819Y-85484524D02*
X149029819Y-86103571D01*
X148029819Y-86436905D02*
X148029819Y-87103571D01*
X148029819Y-87103571D02*
X149029819Y-86675000D01*
X148363152Y-87484524D02*
X149363152Y-87484524D01*
X148410771Y-87484524D02*
X148363152Y-87579762D01*
X148363152Y-87579762D02*
X148363152Y-87770238D01*
X148363152Y-87770238D02*
X148410771Y-87865476D01*
X148410771Y-87865476D02*
X148458390Y-87913095D01*
X148458390Y-87913095D02*
X148553628Y-87960714D01*
X148553628Y-87960714D02*
X148839342Y-87960714D01*
X148839342Y-87960714D02*
X148934580Y-87913095D01*
X148934580Y-87913095D02*
X148982200Y-87865476D01*
X148982200Y-87865476D02*
X149029819Y-87770238D01*
X149029819Y-87770238D02*
X149029819Y-87579762D01*
X149029819Y-87579762D02*
X148982200Y-87484524D01*
X148506009Y-88722619D02*
X148506009Y-88389286D01*
X149029819Y-88389286D02*
X148029819Y-88389286D01*
X148029819Y-88389286D02*
X148029819Y-88865476D01*
D10*
X132750000Y-67414895D02*
X133207143Y-67414895D01*
X132978571Y-67414895D02*
X132978571Y-66614895D01*
X132978571Y-66614895D02*
X133054762Y-66729180D01*
X133054762Y-66729180D02*
X133130952Y-66805371D01*
X133130952Y-66805371D02*
X133207143Y-66843466D01*
X132254761Y-66614895D02*
X132178571Y-66614895D01*
X132178571Y-66614895D02*
X132102380Y-66652990D01*
X132102380Y-66652990D02*
X132064285Y-66691085D01*
X132064285Y-66691085D02*
X132026190Y-66767276D01*
X132026190Y-66767276D02*
X131988095Y-66919657D01*
X131988095Y-66919657D02*
X131988095Y-67110133D01*
X131988095Y-67110133D02*
X132026190Y-67262514D01*
X132026190Y-67262514D02*
X132064285Y-67338704D01*
X132064285Y-67338704D02*
X132102380Y-67376800D01*
X132102380Y-67376800D02*
X132178571Y-67414895D01*
X132178571Y-67414895D02*
X132254761Y-67414895D01*
X132254761Y-67414895D02*
X132330952Y-67376800D01*
X132330952Y-67376800D02*
X132369047Y-67338704D01*
X132369047Y-67338704D02*
X132407142Y-67262514D01*
X132407142Y-67262514D02*
X132445238Y-67110133D01*
X132445238Y-67110133D02*
X132445238Y-66919657D01*
X132445238Y-66919657D02*
X132407142Y-66767276D01*
X132407142Y-66767276D02*
X132369047Y-66691085D01*
X132369047Y-66691085D02*
X132330952Y-66652990D01*
X132330952Y-66652990D02*
X132254761Y-66614895D01*
X131492856Y-66614895D02*
X131416666Y-66614895D01*
X131416666Y-66614895D02*
X131340475Y-66652990D01*
X131340475Y-66652990D02*
X131302380Y-66691085D01*
X131302380Y-66691085D02*
X131264285Y-66767276D01*
X131264285Y-66767276D02*
X131226190Y-66919657D01*
X131226190Y-66919657D02*
X131226190Y-67110133D01*
X131226190Y-67110133D02*
X131264285Y-67262514D01*
X131264285Y-67262514D02*
X131302380Y-67338704D01*
X131302380Y-67338704D02*
X131340475Y-67376800D01*
X131340475Y-67376800D02*
X131416666Y-67414895D01*
X131416666Y-67414895D02*
X131492856Y-67414895D01*
X131492856Y-67414895D02*
X131569047Y-67376800D01*
X131569047Y-67376800D02*
X131607142Y-67338704D01*
X131607142Y-67338704D02*
X131645237Y-67262514D01*
X131645237Y-67262514D02*
X131683333Y-67110133D01*
X131683333Y-67110133D02*
X131683333Y-66919657D01*
X131683333Y-66919657D02*
X131645237Y-66767276D01*
X131645237Y-66767276D02*
X131607142Y-66691085D01*
X131607142Y-66691085D02*
X131569047Y-66652990D01*
X131569047Y-66652990D02*
X131492856Y-66614895D01*
X130883332Y-66881561D02*
X130883332Y-67414895D01*
X130883332Y-66957752D02*
X130845237Y-66919657D01*
X130845237Y-66919657D02*
X130769047Y-66881561D01*
X130769047Y-66881561D02*
X130654761Y-66881561D01*
X130654761Y-66881561D02*
X130578570Y-66919657D01*
X130578570Y-66919657D02*
X130540475Y-66995847D01*
X130540475Y-66995847D02*
X130540475Y-67414895D01*
X130235713Y-67414895D02*
X129816665Y-66881561D01*
X130235713Y-66881561D02*
X129816665Y-67414895D01*
X129549999Y-66691085D02*
X129511903Y-66652990D01*
X129511903Y-66652990D02*
X129435713Y-66614895D01*
X129435713Y-66614895D02*
X129245237Y-66614895D01*
X129245237Y-66614895D02*
X129169046Y-66652990D01*
X129169046Y-66652990D02*
X129130951Y-66691085D01*
X129130951Y-66691085D02*
X129092856Y-66767276D01*
X129092856Y-66767276D02*
X129092856Y-66843466D01*
X129092856Y-66843466D02*
X129130951Y-66957752D01*
X129130951Y-66957752D02*
X129588094Y-67414895D01*
X129588094Y-67414895D02*
X129092856Y-67414895D01*
D11*
X126888152Y-46423809D02*
X127554819Y-46423809D01*
X126507200Y-46185714D02*
X127221485Y-45947619D01*
X127221485Y-45947619D02*
X127221485Y-46566666D01*
X127459580Y-46947619D02*
X127507200Y-46995238D01*
X127507200Y-46995238D02*
X127554819Y-46947619D01*
X127554819Y-46947619D02*
X127507200Y-46900000D01*
X127507200Y-46900000D02*
X127459580Y-46947619D01*
X127459580Y-46947619D02*
X127554819Y-46947619D01*
X126554819Y-47328571D02*
X126554819Y-47995237D01*
X126554819Y-47995237D02*
X127554819Y-47566666D01*
X126888152Y-48804761D02*
X127554819Y-48804761D01*
X126888152Y-48376190D02*
X127411961Y-48376190D01*
X127411961Y-48376190D02*
X127507200Y-48423809D01*
X127507200Y-48423809D02*
X127554819Y-48519047D01*
X127554819Y-48519047D02*
X127554819Y-48661904D01*
X127554819Y-48661904D02*
X127507200Y-48757142D01*
X127507200Y-48757142D02*
X127459580Y-48804761D01*
X144375000Y-61612295D02*
X144832143Y-61612295D01*
X144603571Y-61612295D02*
X144603571Y-60812295D01*
X144603571Y-60812295D02*
X144679762Y-60926580D01*
X144679762Y-60926580D02*
X144755952Y-61002771D01*
X144755952Y-61002771D02*
X144832143Y-61040866D01*
X143879761Y-60812295D02*
X143803571Y-60812295D01*
X143803571Y-60812295D02*
X143727380Y-60850390D01*
X143727380Y-60850390D02*
X143689285Y-60888485D01*
X143689285Y-60888485D02*
X143651190Y-60964676D01*
X143651190Y-60964676D02*
X143613095Y-61117057D01*
X143613095Y-61117057D02*
X143613095Y-61307533D01*
X143613095Y-61307533D02*
X143651190Y-61459914D01*
X143651190Y-61459914D02*
X143689285Y-61536104D01*
X143689285Y-61536104D02*
X143727380Y-61574200D01*
X143727380Y-61574200D02*
X143803571Y-61612295D01*
X143803571Y-61612295D02*
X143879761Y-61612295D01*
X143879761Y-61612295D02*
X143955952Y-61574200D01*
X143955952Y-61574200D02*
X143994047Y-61536104D01*
X143994047Y-61536104D02*
X144032142Y-61459914D01*
X144032142Y-61459914D02*
X144070238Y-61307533D01*
X144070238Y-61307533D02*
X144070238Y-61117057D01*
X144070238Y-61117057D02*
X144032142Y-60964676D01*
X144032142Y-60964676D02*
X143994047Y-60888485D01*
X143994047Y-60888485D02*
X143955952Y-60850390D01*
X143955952Y-60850390D02*
X143879761Y-60812295D01*
X143117856Y-60812295D02*
X143041666Y-60812295D01*
X143041666Y-60812295D02*
X142965475Y-60850390D01*
X142965475Y-60850390D02*
X142927380Y-60888485D01*
X142927380Y-60888485D02*
X142889285Y-60964676D01*
X142889285Y-60964676D02*
X142851190Y-61117057D01*
X142851190Y-61117057D02*
X142851190Y-61307533D01*
X142851190Y-61307533D02*
X142889285Y-61459914D01*
X142889285Y-61459914D02*
X142927380Y-61536104D01*
X142927380Y-61536104D02*
X142965475Y-61574200D01*
X142965475Y-61574200D02*
X143041666Y-61612295D01*
X143041666Y-61612295D02*
X143117856Y-61612295D01*
X143117856Y-61612295D02*
X143194047Y-61574200D01*
X143194047Y-61574200D02*
X143232142Y-61536104D01*
X143232142Y-61536104D02*
X143270237Y-61459914D01*
X143270237Y-61459914D02*
X143308333Y-61307533D01*
X143308333Y-61307533D02*
X143308333Y-61117057D01*
X143308333Y-61117057D02*
X143270237Y-60964676D01*
X143270237Y-60964676D02*
X143232142Y-60888485D01*
X143232142Y-60888485D02*
X143194047Y-60850390D01*
X143194047Y-60850390D02*
X143117856Y-60812295D01*
X142508332Y-61078961D02*
X142508332Y-61612295D01*
X142508332Y-61155152D02*
X142470237Y-61117057D01*
X142470237Y-61117057D02*
X142394047Y-61078961D01*
X142394047Y-61078961D02*
X142279761Y-61078961D01*
X142279761Y-61078961D02*
X142203570Y-61117057D01*
X142203570Y-61117057D02*
X142165475Y-61193247D01*
X142165475Y-61193247D02*
X142165475Y-61612295D01*
X141860713Y-61612295D02*
X141441665Y-61078961D01*
X141860713Y-61078961D02*
X141441665Y-61612295D01*
X141213094Y-60812295D02*
X140717856Y-60812295D01*
X140717856Y-60812295D02*
X140984522Y-61117057D01*
X140984522Y-61117057D02*
X140870237Y-61117057D01*
X140870237Y-61117057D02*
X140794046Y-61155152D01*
X140794046Y-61155152D02*
X140755951Y-61193247D01*
X140755951Y-61193247D02*
X140717856Y-61269438D01*
X140717856Y-61269438D02*
X140717856Y-61459914D01*
X140717856Y-61459914D02*
X140755951Y-61536104D01*
X140755951Y-61536104D02*
X140794046Y-61574200D01*
X140794046Y-61574200D02*
X140870237Y-61612295D01*
X140870237Y-61612295D02*
X141098808Y-61612295D01*
X141098808Y-61612295D02*
X141174999Y-61574200D01*
X141174999Y-61574200D02*
X141213094Y-61536104D01*
D10*
X116664895Y-66972618D02*
X116664895Y-67467856D01*
X116664895Y-67467856D02*
X116969657Y-67201190D01*
X116969657Y-67201190D02*
X116969657Y-67315475D01*
X116969657Y-67315475D02*
X117007752Y-67391666D01*
X117007752Y-67391666D02*
X117045847Y-67429761D01*
X117045847Y-67429761D02*
X117122038Y-67467856D01*
X117122038Y-67467856D02*
X117312514Y-67467856D01*
X117312514Y-67467856D02*
X117388704Y-67429761D01*
X117388704Y-67429761D02*
X117426800Y-67391666D01*
X117426800Y-67391666D02*
X117464895Y-67315475D01*
X117464895Y-67315475D02*
X117464895Y-67086904D01*
X117464895Y-67086904D02*
X117426800Y-67010713D01*
X117426800Y-67010713D02*
X117388704Y-66972618D01*
X116664895Y-68153571D02*
X116664895Y-68001190D01*
X116664895Y-68001190D02*
X116702990Y-67924999D01*
X116702990Y-67924999D02*
X116741085Y-67886904D01*
X116741085Y-67886904D02*
X116855371Y-67810714D01*
X116855371Y-67810714D02*
X117007752Y-67772618D01*
X117007752Y-67772618D02*
X117312514Y-67772618D01*
X117312514Y-67772618D02*
X117388704Y-67810714D01*
X117388704Y-67810714D02*
X117426800Y-67848809D01*
X117426800Y-67848809D02*
X117464895Y-67924999D01*
X117464895Y-67924999D02*
X117464895Y-68077380D01*
X117464895Y-68077380D02*
X117426800Y-68153571D01*
X117426800Y-68153571D02*
X117388704Y-68191666D01*
X117388704Y-68191666D02*
X117312514Y-68229761D01*
X117312514Y-68229761D02*
X117122038Y-68229761D01*
X117122038Y-68229761D02*
X117045847Y-68191666D01*
X117045847Y-68191666D02*
X117007752Y-68153571D01*
X117007752Y-68153571D02*
X116969657Y-68077380D01*
X116969657Y-68077380D02*
X116969657Y-67924999D01*
X116969657Y-67924999D02*
X117007752Y-67848809D01*
X117007752Y-67848809D02*
X117045847Y-67810714D01*
X117045847Y-67810714D02*
X117122038Y-67772618D01*
X116664895Y-68725000D02*
X116664895Y-68801190D01*
X116664895Y-68801190D02*
X116702990Y-68877381D01*
X116702990Y-68877381D02*
X116741085Y-68915476D01*
X116741085Y-68915476D02*
X116817276Y-68953571D01*
X116817276Y-68953571D02*
X116969657Y-68991666D01*
X116969657Y-68991666D02*
X117160133Y-68991666D01*
X117160133Y-68991666D02*
X117312514Y-68953571D01*
X117312514Y-68953571D02*
X117388704Y-68915476D01*
X117388704Y-68915476D02*
X117426800Y-68877381D01*
X117426800Y-68877381D02*
X117464895Y-68801190D01*
X117464895Y-68801190D02*
X117464895Y-68725000D01*
X117464895Y-68725000D02*
X117426800Y-68648809D01*
X117426800Y-68648809D02*
X117388704Y-68610714D01*
X117388704Y-68610714D02*
X117312514Y-68572619D01*
X117312514Y-68572619D02*
X117160133Y-68534523D01*
X117160133Y-68534523D02*
X116969657Y-68534523D01*
X116969657Y-68534523D02*
X116817276Y-68572619D01*
X116817276Y-68572619D02*
X116741085Y-68610714D01*
X116741085Y-68610714D02*
X116702990Y-68648809D01*
X116702990Y-68648809D02*
X116664895Y-68725000D01*
X117464895Y-69334524D02*
X116664895Y-69334524D01*
X117160133Y-69410714D02*
X117464895Y-69639286D01*
X116931561Y-69639286D02*
X117236323Y-69334524D01*
D11*
X158182200Y-82666667D02*
X158229819Y-82809524D01*
X158229819Y-82809524D02*
X158229819Y-83047619D01*
X158229819Y-83047619D02*
X158182200Y-83142857D01*
X158182200Y-83142857D02*
X158134580Y-83190476D01*
X158134580Y-83190476D02*
X158039342Y-83238095D01*
X158039342Y-83238095D02*
X157944104Y-83238095D01*
X157944104Y-83238095D02*
X157848866Y-83190476D01*
X157848866Y-83190476D02*
X157801247Y-83142857D01*
X157801247Y-83142857D02*
X157753628Y-83047619D01*
X157753628Y-83047619D02*
X157706009Y-82857143D01*
X157706009Y-82857143D02*
X157658390Y-82761905D01*
X157658390Y-82761905D02*
X157610771Y-82714286D01*
X157610771Y-82714286D02*
X157515533Y-82666667D01*
X157515533Y-82666667D02*
X157420295Y-82666667D01*
X157420295Y-82666667D02*
X157325057Y-82714286D01*
X157325057Y-82714286D02*
X157277438Y-82761905D01*
X157277438Y-82761905D02*
X157229819Y-82857143D01*
X157229819Y-82857143D02*
X157229819Y-83095238D01*
X157229819Y-83095238D02*
X157277438Y-83238095D01*
X157229819Y-83571429D02*
X158229819Y-83809524D01*
X158229819Y-83809524D02*
X157515533Y-84000000D01*
X157515533Y-84000000D02*
X158229819Y-84190476D01*
X158229819Y-84190476D02*
X157229819Y-84428572D01*
X157563152Y-85238095D02*
X158229819Y-85238095D01*
X157182200Y-85000000D02*
X157896485Y-84761905D01*
X157896485Y-84761905D02*
X157896485Y-85380952D01*
X143151190Y-89678628D02*
X143151190Y-90154819D01*
X143484523Y-89154819D02*
X143151190Y-89678628D01*
X143151190Y-89678628D02*
X142817857Y-89154819D01*
X142579761Y-89154819D02*
X141960714Y-89154819D01*
X141960714Y-89154819D02*
X142294047Y-89535771D01*
X142294047Y-89535771D02*
X142151190Y-89535771D01*
X142151190Y-89535771D02*
X142055952Y-89583390D01*
X142055952Y-89583390D02*
X142008333Y-89631009D01*
X142008333Y-89631009D02*
X141960714Y-89726247D01*
X141960714Y-89726247D02*
X141960714Y-89964342D01*
X141960714Y-89964342D02*
X142008333Y-90059580D01*
X142008333Y-90059580D02*
X142055952Y-90107200D01*
X142055952Y-90107200D02*
X142151190Y-90154819D01*
X142151190Y-90154819D02*
X142436904Y-90154819D01*
X142436904Y-90154819D02*
X142532142Y-90107200D01*
X142532142Y-90107200D02*
X142579761Y-90059580D01*
X143549819Y-56054761D02*
X143549819Y-55483333D01*
X143549819Y-55769047D02*
X142549819Y-55769047D01*
X142549819Y-55769047D02*
X142692676Y-55673809D01*
X142692676Y-55673809D02*
X142787914Y-55578571D01*
X142787914Y-55578571D02*
X142835533Y-55483333D01*
X142549819Y-56673809D02*
X142549819Y-56769047D01*
X142549819Y-56769047D02*
X142597438Y-56864285D01*
X142597438Y-56864285D02*
X142645057Y-56911904D01*
X142645057Y-56911904D02*
X142740295Y-56959523D01*
X142740295Y-56959523D02*
X142930771Y-57007142D01*
X142930771Y-57007142D02*
X143168866Y-57007142D01*
X143168866Y-57007142D02*
X143359342Y-56959523D01*
X143359342Y-56959523D02*
X143454580Y-56911904D01*
X143454580Y-56911904D02*
X143502200Y-56864285D01*
X143502200Y-56864285D02*
X143549819Y-56769047D01*
X143549819Y-56769047D02*
X143549819Y-56673809D01*
X143549819Y-56673809D02*
X143502200Y-56578571D01*
X143502200Y-56578571D02*
X143454580Y-56530952D01*
X143454580Y-56530952D02*
X143359342Y-56483333D01*
X143359342Y-56483333D02*
X143168866Y-56435714D01*
X143168866Y-56435714D02*
X142930771Y-56435714D01*
X142930771Y-56435714D02*
X142740295Y-56483333D01*
X142740295Y-56483333D02*
X142645057Y-56530952D01*
X142645057Y-56530952D02*
X142597438Y-56578571D01*
X142597438Y-56578571D02*
X142549819Y-56673809D01*
X143549819Y-57435714D02*
X142549819Y-57435714D01*
X143168866Y-57530952D02*
X143549819Y-57816666D01*
X142883152Y-57816666D02*
X143264104Y-57435714D01*
X136150057Y-58888095D02*
X136102438Y-58935714D01*
X136102438Y-58935714D02*
X136054819Y-59030952D01*
X136054819Y-59030952D02*
X136054819Y-59269047D01*
X136054819Y-59269047D02*
X136102438Y-59364285D01*
X136102438Y-59364285D02*
X136150057Y-59411904D01*
X136150057Y-59411904D02*
X136245295Y-59459523D01*
X136245295Y-59459523D02*
X136340533Y-59459523D01*
X136340533Y-59459523D02*
X136483390Y-59411904D01*
X136483390Y-59411904D02*
X137054819Y-58840476D01*
X137054819Y-58840476D02*
X137054819Y-59459523D01*
X136054819Y-59792857D02*
X136054819Y-60459523D01*
X136054819Y-60459523D02*
X137054819Y-60030952D01*
D10*
X136764895Y-82104761D02*
X136764895Y-81647618D01*
X136764895Y-81876190D02*
X135964895Y-81876190D01*
X135964895Y-81876190D02*
X136079180Y-81799999D01*
X136079180Y-81799999D02*
X136155371Y-81723809D01*
X136155371Y-81723809D02*
X136193466Y-81647618D01*
X135964895Y-82600000D02*
X135964895Y-82676190D01*
X135964895Y-82676190D02*
X136002990Y-82752381D01*
X136002990Y-82752381D02*
X136041085Y-82790476D01*
X136041085Y-82790476D02*
X136117276Y-82828571D01*
X136117276Y-82828571D02*
X136269657Y-82866666D01*
X136269657Y-82866666D02*
X136460133Y-82866666D01*
X136460133Y-82866666D02*
X136612514Y-82828571D01*
X136612514Y-82828571D02*
X136688704Y-82790476D01*
X136688704Y-82790476D02*
X136726800Y-82752381D01*
X136726800Y-82752381D02*
X136764895Y-82676190D01*
X136764895Y-82676190D02*
X136764895Y-82600000D01*
X136764895Y-82600000D02*
X136726800Y-82523809D01*
X136726800Y-82523809D02*
X136688704Y-82485714D01*
X136688704Y-82485714D02*
X136612514Y-82447619D01*
X136612514Y-82447619D02*
X136460133Y-82409523D01*
X136460133Y-82409523D02*
X136269657Y-82409523D01*
X136269657Y-82409523D02*
X136117276Y-82447619D01*
X136117276Y-82447619D02*
X136041085Y-82485714D01*
X136041085Y-82485714D02*
X136002990Y-82523809D01*
X136002990Y-82523809D02*
X135964895Y-82600000D01*
X135964895Y-83361905D02*
X135964895Y-83438095D01*
X135964895Y-83438095D02*
X136002990Y-83514286D01*
X136002990Y-83514286D02*
X136041085Y-83552381D01*
X136041085Y-83552381D02*
X136117276Y-83590476D01*
X136117276Y-83590476D02*
X136269657Y-83628571D01*
X136269657Y-83628571D02*
X136460133Y-83628571D01*
X136460133Y-83628571D02*
X136612514Y-83590476D01*
X136612514Y-83590476D02*
X136688704Y-83552381D01*
X136688704Y-83552381D02*
X136726800Y-83514286D01*
X136726800Y-83514286D02*
X136764895Y-83438095D01*
X136764895Y-83438095D02*
X136764895Y-83361905D01*
X136764895Y-83361905D02*
X136726800Y-83285714D01*
X136726800Y-83285714D02*
X136688704Y-83247619D01*
X136688704Y-83247619D02*
X136612514Y-83209524D01*
X136612514Y-83209524D02*
X136460133Y-83171428D01*
X136460133Y-83171428D02*
X136269657Y-83171428D01*
X136269657Y-83171428D02*
X136117276Y-83209524D01*
X136117276Y-83209524D02*
X136041085Y-83247619D01*
X136041085Y-83247619D02*
X136002990Y-83285714D01*
X136002990Y-83285714D02*
X135964895Y-83361905D01*
X136231561Y-83971429D02*
X136764895Y-83971429D01*
X136307752Y-83971429D02*
X136269657Y-84009524D01*
X136269657Y-84009524D02*
X136231561Y-84085714D01*
X136231561Y-84085714D02*
X136231561Y-84200000D01*
X136231561Y-84200000D02*
X136269657Y-84276191D01*
X136269657Y-84276191D02*
X136345847Y-84314286D01*
X136345847Y-84314286D02*
X136764895Y-84314286D01*
D11*
X140750057Y-58838095D02*
X140702438Y-58885714D01*
X140702438Y-58885714D02*
X140654819Y-58980952D01*
X140654819Y-58980952D02*
X140654819Y-59219047D01*
X140654819Y-59219047D02*
X140702438Y-59314285D01*
X140702438Y-59314285D02*
X140750057Y-59361904D01*
X140750057Y-59361904D02*
X140845295Y-59409523D01*
X140845295Y-59409523D02*
X140940533Y-59409523D01*
X140940533Y-59409523D02*
X141083390Y-59361904D01*
X141083390Y-59361904D02*
X141654819Y-58790476D01*
X141654819Y-58790476D02*
X141654819Y-59409523D01*
X140654819Y-59742857D02*
X140654819Y-60409523D01*
X140654819Y-60409523D02*
X141654819Y-59980952D01*
D10*
X121239286Y-65039895D02*
X121696429Y-65039895D01*
X121467857Y-65039895D02*
X121467857Y-64239895D01*
X121467857Y-64239895D02*
X121544048Y-64354180D01*
X121544048Y-64354180D02*
X121620238Y-64430371D01*
X121620238Y-64430371D02*
X121696429Y-64468466D01*
X120744047Y-64239895D02*
X120667857Y-64239895D01*
X120667857Y-64239895D02*
X120591666Y-64277990D01*
X120591666Y-64277990D02*
X120553571Y-64316085D01*
X120553571Y-64316085D02*
X120515476Y-64392276D01*
X120515476Y-64392276D02*
X120477381Y-64544657D01*
X120477381Y-64544657D02*
X120477381Y-64735133D01*
X120477381Y-64735133D02*
X120515476Y-64887514D01*
X120515476Y-64887514D02*
X120553571Y-64963704D01*
X120553571Y-64963704D02*
X120591666Y-65001800D01*
X120591666Y-65001800D02*
X120667857Y-65039895D01*
X120667857Y-65039895D02*
X120744047Y-65039895D01*
X120744047Y-65039895D02*
X120820238Y-65001800D01*
X120820238Y-65001800D02*
X120858333Y-64963704D01*
X120858333Y-64963704D02*
X120896428Y-64887514D01*
X120896428Y-64887514D02*
X120934524Y-64735133D01*
X120934524Y-64735133D02*
X120934524Y-64544657D01*
X120934524Y-64544657D02*
X120896428Y-64392276D01*
X120896428Y-64392276D02*
X120858333Y-64316085D01*
X120858333Y-64316085D02*
X120820238Y-64277990D01*
X120820238Y-64277990D02*
X120744047Y-64239895D01*
X119791666Y-64506561D02*
X119791666Y-65039895D01*
X120134523Y-64506561D02*
X120134523Y-64925609D01*
X120134523Y-64925609D02*
X120096428Y-65001800D01*
X120096428Y-65001800D02*
X120020238Y-65039895D01*
X120020238Y-65039895D02*
X119905952Y-65039895D01*
X119905952Y-65039895D02*
X119829761Y-65001800D01*
X119829761Y-65001800D02*
X119791666Y-64963704D01*
D13*
%TO.C,R7*%
X141102500Y-81732776D02*
X141102500Y-82242224D01*
X142147500Y-81732776D02*
X142147500Y-82242224D01*
%TO.C,D1*%
X129825000Y-46380000D02*
X129825000Y-51400000D01*
X129825000Y-46380000D02*
X132725000Y-46380000D01*
X132725000Y-46380000D02*
X132725000Y-51400000D01*
%TO.C,C10*%
X139265000Y-81841233D02*
X139265000Y-82133767D01*
X140285000Y-81841233D02*
X140285000Y-82133767D01*
%TO.C,U102*%
X123586750Y-79643250D02*
X123586750Y-81023250D01*
X123586750Y-82293250D02*
X123586750Y-84943250D01*
X123586750Y-84943250D02*
X133966750Y-84943250D01*
X124966750Y-79643250D02*
X123586750Y-79643250D01*
X126236750Y-79643250D02*
X126236750Y-82293250D01*
X126236750Y-79643250D02*
X133966750Y-79643250D01*
X126236750Y-82293250D02*
X123586750Y-82293250D01*
X133966750Y-79643250D02*
X133966750Y-84943250D01*
%TO.C,SW2*%
X151205000Y-76180000D02*
X151205000Y-73420000D01*
X153855000Y-73420000D02*
X151205000Y-73420000D01*
X153855000Y-76180000D02*
X151205000Y-76180000D01*
X153855000Y-76180000D02*
X153855000Y-73420000D01*
X155125000Y-76180000D02*
X156505000Y-76180000D01*
X156505000Y-76180000D02*
X156505000Y-74800000D01*
%TO.C,R403*%
X132645276Y-63902500D02*
X133154724Y-63902500D01*
X132645276Y-64947500D02*
X133154724Y-64947500D01*
%TO.C,C4*%
X137140000Y-66946267D02*
X137140000Y-66653733D01*
X138160000Y-66946267D02*
X138160000Y-66653733D01*
%TO.C,J2*%
X151180000Y-70105000D02*
X151180000Y-67345000D01*
X158910000Y-67345000D02*
X151180000Y-67345000D01*
X158910000Y-70105000D02*
X151180000Y-70105000D01*
X158910000Y-70105000D02*
X158910000Y-67345000D01*
X160180000Y-70105000D02*
X161560000Y-70105000D01*
X161560000Y-70105000D02*
X161560000Y-68725000D01*
%TO.C,C8*%
X135565000Y-66946267D02*
X135565000Y-66653733D01*
X136585000Y-66946267D02*
X136585000Y-66653733D01*
%TO.C,U3*%
X146035000Y-54502500D02*
X146305000Y-54502500D01*
X146035000Y-57262500D02*
X146035000Y-54502500D01*
X146035000Y-57262500D02*
X146035000Y-60022500D01*
X146035000Y-60022500D02*
X146305000Y-60022500D01*
X151555000Y-54502500D02*
X151285000Y-54502500D01*
X151555000Y-57262500D02*
X151555000Y-54502500D01*
X151555000Y-57262500D02*
X151555000Y-60022500D01*
X151555000Y-60022500D02*
X151285000Y-60022500D01*
X146305000Y-53737500D02*
X145975000Y-53977500D01*
X145975000Y-53497500D01*
X146305000Y-53737500D01*
G36*
X146305000Y-53737500D02*
G01*
X145975000Y-53977500D01*
X145975000Y-53497500D01*
X146305000Y-53737500D01*
G37*
%TO.C,C402*%
X123611252Y-57740000D02*
X123088748Y-57740000D01*
X123611252Y-59210000D02*
X123088748Y-59210000D01*
%TO.C,C15*%
X145090000Y-69766267D02*
X145090000Y-69473733D01*
X146110000Y-69766267D02*
X146110000Y-69473733D01*
%TO.C,C30*%
X127540000Y-67296267D02*
X127540000Y-67003733D01*
X128560000Y-67296267D02*
X128560000Y-67003733D01*
%TO.C,RV3*%
X120815000Y-76355000D02*
X120815000Y-73595000D01*
X126005000Y-73595000D02*
X120815000Y-73595000D01*
X126005000Y-76355000D02*
X120815000Y-76355000D01*
X126005000Y-76355000D02*
X126005000Y-73595000D01*
X127275000Y-76355000D02*
X128655000Y-76355000D01*
X128655000Y-76355000D02*
X128655000Y-74975000D01*
%TO.C,R405*%
X133203249Y-60002500D02*
X132693801Y-60002500D01*
X133203249Y-61047500D02*
X132693801Y-61047500D01*
%TO.C,C5*%
X141715000Y-64721267D02*
X141715000Y-64428733D01*
X142735000Y-64721267D02*
X142735000Y-64428733D01*
%TO.C,R10*%
X143977500Y-53029724D02*
X143977500Y-52520276D01*
X145022500Y-53029724D02*
X145022500Y-52520276D01*
%TO.C,BT1*%
X114165000Y-56940000D02*
X118885000Y-56940000D01*
X114165000Y-65060000D02*
X114165000Y-56940000D01*
X114775000Y-57550000D02*
X118275000Y-57550000D01*
X114775000Y-60000000D02*
X115275000Y-60000000D01*
X114775000Y-60100000D02*
X115275000Y-60100000D01*
X114775000Y-62000000D02*
X115275000Y-62000000D01*
X114775000Y-62100000D02*
X115275000Y-62100000D01*
X114775000Y-64450000D02*
X114775000Y-57550000D01*
X115275000Y-59900000D02*
X114775000Y-59900000D01*
X115275000Y-60100000D02*
X115275000Y-59900000D01*
X115275000Y-61900000D02*
X114775000Y-61900000D01*
X115275000Y-62100000D02*
X115275000Y-61900000D01*
X116275000Y-56940000D02*
X116275000Y-57550000D01*
X116275000Y-65060000D02*
X116275000Y-64450000D01*
X117575000Y-56940000D02*
X117575000Y-57550000D01*
X117575000Y-65060000D02*
X117575000Y-64450000D01*
X118275000Y-57550000D02*
X118275000Y-59500000D01*
X118275000Y-59500000D02*
X118885000Y-59500000D01*
X118275000Y-62500000D02*
X118275000Y-64450000D01*
X118275000Y-64450000D02*
X114775000Y-64450000D01*
X118885000Y-56940000D02*
X118885000Y-65060000D01*
X118885000Y-62500000D02*
X118275000Y-62500000D01*
X118885000Y-63300000D02*
X119085000Y-63300000D01*
X118885000Y-65060000D02*
X114165000Y-65060000D01*
X118985000Y-63300000D02*
X118985000Y-63600000D01*
X119085000Y-63300000D02*
X119085000Y-63600000D01*
X119085000Y-63600000D02*
X118885000Y-63600000D01*
X119185000Y-64110000D02*
X119185000Y-65360000D01*
X119185000Y-65360000D02*
X117935000Y-65360000D01*
%TO.C,SW3*%
X151205000Y-80770000D02*
X151205000Y-78010000D01*
X153855000Y-78010000D02*
X151205000Y-78010000D01*
X153855000Y-80770000D02*
X151205000Y-80770000D01*
X153855000Y-80770000D02*
X153855000Y-78010000D01*
X155125000Y-80770000D02*
X156505000Y-80770000D01*
X156505000Y-80770000D02*
X156505000Y-79390000D01*
%TO.C,C403*%
X121265000Y-48138748D02*
X121265000Y-48661252D01*
X122735000Y-48138748D02*
X122735000Y-48661252D01*
%TO.C,U2*%
X136502500Y-70415000D02*
X136502500Y-71065000D01*
X136502500Y-77635000D02*
X136502500Y-76985000D01*
X137152500Y-70415000D02*
X136502500Y-70415000D01*
X137152500Y-77635000D02*
X136502500Y-77635000D01*
X143072500Y-70415000D02*
X143422500Y-70415000D01*
X143072500Y-77635000D02*
X143722500Y-77635000D01*
X143722500Y-71065000D02*
X143722500Y-70655000D01*
X143722500Y-77635000D02*
X143722500Y-76985000D01*
X143722500Y-70415000D02*
X143482500Y-70085000D01*
X143962500Y-70085000D01*
X143722500Y-70415000D01*
G36*
X143722500Y-70415000D02*
G01*
X143482500Y-70085000D01*
X143962500Y-70085000D01*
X143722500Y-70415000D01*
G37*
%TO.C,C16*%
X134515000Y-52516233D02*
X134515000Y-52808767D01*
X135535000Y-52516233D02*
X135535000Y-52808767D01*
%TO.C,C404*%
X128709777Y-58965000D02*
X128187273Y-58965000D01*
X128709777Y-60435000D02*
X128187273Y-60435000D01*
%TO.C,R25*%
X124027500Y-66870276D02*
X124027500Y-67379724D01*
X125072500Y-66870276D02*
X125072500Y-67379724D01*
%TO.C,C1*%
X146158767Y-62340000D02*
X145866233Y-62340000D01*
X146158767Y-63360000D02*
X145866233Y-63360000D01*
%TO.C,C12*%
X145090000Y-77103733D02*
X145090000Y-77396267D01*
X146110000Y-77103733D02*
X146110000Y-77396267D01*
%TO.C,R1*%
X134765000Y-88366233D02*
X134765000Y-88658767D01*
X135785000Y-88366233D02*
X135785000Y-88658767D01*
%TO.C,U401*%
X124513525Y-64465000D02*
X126513525Y-64465000D01*
X124523525Y-62185000D02*
X126523525Y-62185000D01*
X124153525Y-64675000D02*
X123873525Y-64395000D01*
X124153525Y-64395000D01*
X124153525Y-64675000D01*
G36*
X124153525Y-64675000D02*
G01*
X123873525Y-64395000D01*
X124153525Y-64395000D01*
X124153525Y-64675000D01*
G37*
%TO.C,RV4*%
X120890000Y-72180000D02*
X120890000Y-69420000D01*
X126080000Y-69420000D02*
X120890000Y-69420000D01*
X126080000Y-72180000D02*
X120890000Y-72180000D01*
X126080000Y-72180000D02*
X126080000Y-69420000D01*
X127350000Y-72180000D02*
X128730000Y-72180000D01*
X128730000Y-72180000D02*
X128730000Y-70800000D01*
%TO.C,C11*%
X126558767Y-77540000D02*
X126266233Y-77540000D01*
X126558767Y-78560000D02*
X126266233Y-78560000D01*
%TO.C,R3*%
X136477500Y-52432776D02*
X136477500Y-52942224D01*
X137522500Y-52432776D02*
X137522500Y-52942224D01*
%TO.C,R404*%
X132643801Y-62102500D02*
X133153249Y-62102500D01*
X132643801Y-63147500D02*
X133153249Y-63147500D01*
%TO.C,C14*%
X133083767Y-67765000D02*
X132791233Y-67765000D01*
X133083767Y-68785000D02*
X132791233Y-68785000D01*
%TO.C,R2*%
X127952500Y-54195276D02*
X127952500Y-54704724D01*
X128997500Y-54195276D02*
X128997500Y-54704724D01*
%TO.C,L402*%
X128113525Y-64085000D02*
X128113525Y-61065000D01*
X130833525Y-64085000D02*
X130833525Y-61065000D01*
%TO.C,C3*%
X137690000Y-86753733D02*
X137690000Y-87046267D01*
X138710000Y-86753733D02*
X138710000Y-87046267D01*
%TO.C,U1*%
X123777500Y-54200000D02*
X123777500Y-53400000D01*
X123777500Y-54200000D02*
X123777500Y-55000000D01*
X126897500Y-54200000D02*
X126897500Y-53400000D01*
X126897500Y-54200000D02*
X126897500Y-55000000D01*
X127177500Y-55740000D02*
X126847500Y-55500000D01*
X127177500Y-55260000D01*
X127177500Y-55740000D01*
G36*
X127177500Y-55740000D02*
G01*
X126847500Y-55500000D01*
X127177500Y-55260000D01*
X127177500Y-55740000D01*
G37*
%TO.C,C2*%
X146390000Y-87096267D02*
X146390000Y-86803733D01*
X147410000Y-87096267D02*
X147410000Y-86803733D01*
%TO.C,C9*%
X133083767Y-69865000D02*
X132791233Y-69865000D01*
X133083767Y-70885000D02*
X132791233Y-70885000D01*
%TO.C,C403*%
X124590000Y-48063748D02*
X124590000Y-48586252D01*
X126060000Y-48063748D02*
X126060000Y-48586252D01*
%TO.C,C13*%
X139740000Y-64708767D02*
X139740000Y-64416233D01*
X140760000Y-64708767D02*
X140760000Y-64416233D01*
%TO.C,R26*%
X125802500Y-67379724D02*
X125802500Y-66870276D01*
X126847500Y-67379724D02*
X126847500Y-66870276D01*
%TO.C,SW4*%
X151205000Y-85360000D02*
X151205000Y-82600000D01*
X153855000Y-82600000D02*
X151205000Y-82600000D01*
X153855000Y-85360000D02*
X151205000Y-85360000D01*
X153855000Y-85360000D02*
X153855000Y-82600000D01*
X155125000Y-85360000D02*
X156505000Y-85360000D01*
X156505000Y-85360000D02*
X156505000Y-83980000D01*
%TO.C,Y3*%
X140725000Y-85250000D02*
X144725000Y-85250000D01*
X140725000Y-88550000D02*
X140725000Y-85250000D01*
%TO.C,P1*%
X134075000Y-41150000D02*
X134075000Y-41360000D01*
X134075000Y-47010000D02*
X134075000Y-44310000D01*
X134075000Y-49510000D02*
X143575000Y-49510000D01*
X135700000Y-49660000D02*
X135925000Y-49660000D01*
X143575000Y-41160000D02*
X143575000Y-41385000D01*
X143575000Y-44260000D02*
X143575000Y-46985000D01*
%TO.C,R8*%
X144002500Y-56904724D02*
X144002500Y-56395276D01*
X145047500Y-56904724D02*
X145047500Y-56395276D01*
%TO.C,R4*%
X137452500Y-59395276D02*
X137452500Y-59904724D01*
X138497500Y-59395276D02*
X138497500Y-59904724D01*
%TO.C,C6*%
X137265000Y-81841233D02*
X137265000Y-82133767D01*
X138285000Y-81841233D02*
X138285000Y-82133767D01*
%TO.C,R5*%
X139202500Y-59395276D02*
X139202500Y-59904724D01*
X140247500Y-59395276D02*
X140247500Y-59904724D01*
%TO.C,C401*%
X121588525Y-62286252D02*
X121588525Y-61763748D01*
X123058525Y-62286252D02*
X123058525Y-61763748D01*
%TD*%
M02*
