<?xml version="1.0" encoding="UTF-8"?>
<svg id="SDU_logo" data-name="SDU logo" xmlns="http://www.w3.org/2000/svg" viewBox="0 0 677.68 232.95">
  <path id="SDU_logo-2" data-name="SDU logo" d="M537.26,127.72c-7.73,1.87-22.68,4.18-32.64,4.18-20.56,0-25.15-11.73-26.17-16.8-8.03-1.82-21.25-.86-27.62.59,6.28,1.38,9.99,6.23,11.11,15.19.75-.26,3.89-1.3,7.15-1.3,6.98,0,12.89,8.05,12.89,16.96,0,13.19-7.4,22.97-14.57,22.97-4.88,0-6.4-2.38-8.05-2.38s-2.98,2.45-7.66,2.45c-7.29,0-15.32-10.8-15.32-23.09,0-5.67,3.04-17,15.08-17,3.07,0,4.63.8,5,1.03-.21-6.21-4.66-11.78-12.69-11.78-6.83,0-23.4,6.58-35.38,16.73l-3.56-4.98c11.29-8.46,35.51-20.57,63.58-20.57,3.88,0,7.41.29,10.36.78,1.36-3.62,5.6-10.63,18.12-10.63,19.62,0,34.11,16.69,40.39,27.65ZM498.26,63.36c-36.38,7.93-50.36,27.1-50.36,41.29,38-4.59,33.36-28.43,50.36-41.29ZM389.09,77.37h-17.53v53.9c0,22.38-18.97,22.72-21.42,22.72s-21.42-.35-21.42-22.73v-53.89h-17.54v52.6c0,28.18,18.52,39.61,38.96,39.61s38.96-11.43,38.96-39.61v-52.6ZM296.9,122.84c0,3.45-.42,45.46-49.35,45.46h-28.57v-90.92h28.57c48.94,0,49.35,42.01,49.35,45.46ZM279.36,122.84c0-10.98-6.29-29.88-29.87-29.88h-12.99v59.75h12.99c23.58,0,29.87-18.89,29.87-29.88ZM140.41,155.94c9.34,8.57,20.64,13.64,32.85,13.64,16.36,0,30.78-11.17,30.78-27.27,0-30.64-41.95-26.11-41.95-40.79,0-7,7.41-9.86,14.03-9.86,5.98,0,12.08,2.59,15.71,5.98l9.1-12.99c-8.57-6.36-17.15-8.57-26.37-8.57-15.06,0-29.99,9.35-29.99,25.58,0,29,41.95,22.85,41.95,40.92,0,6.61-5.46,11.42-13.25,11.42-8.3,0-16.23-4.29-21.43-9.99l-11.42,11.94Z"/>
</svg>