M48
; DRILL file {KiCad 9.0.1} date 2025-11-13T19:44:30+0100
; FORMAT={-:-/ absolute / inch / decimal}
; #@! TF.CreationDate,2025-11-13T19:44:30+01:00
; #@! TF.GenerationSoftware,Kicad,Pcbnew,9.0.1
; #@! TF.FileFunction,Plated,1,2,PTH
FMAT,2
INCH
; #@! TA.AperFunction,Plated,PTH,ComponentDrill
T1C0.0098
; #@! TA.AperFunction,Plated,PTH,ViaDrill
T2C0.0118
; #@! TA.AperFunction,Plated,PTH,ViaDrill
T3C0.0138
; #@! TA.AperFunction,Plated,PTH,ComponentDrill
T4C0.0138
; #@! TA.AperFunction,Plated,PTH,ComponentDrill
T5C0.0236
; #@! TA.AperFunction,Plated,PTH,ComponentDrill
T6C0.0295
; #@! TA.AperFunction,Plated,PTH,ComponentDrill
T7C0.0394
%
G90
G05
T1
X4.9419Y-2.4734
X4.9419Y-2.5128
T2
X4.8169Y-2.6407
X4.9055Y-2.5591
X4.9085Y-2.4291
X4.935Y-2.0276
X4.9587Y-2.2441
X4.9793Y-2.5591
X5.0148Y-2.2254
X5.0246Y-2.437
X5.0246Y-2.4941
X5.1417Y-2.688
X5.189Y-2.6073
X5.2736Y-2.938
X5.3248Y-1.9852
X5.378Y-3.4006
X5.3878Y-3.1942
X5.3957Y-2.2628
X5.4252Y-3.3297
X5.4262Y-2.5443
X5.4301Y-2.4341
X5.4419Y-3.5197
X5.4952Y-2.8317
X5.501Y-3.1417
X5.5067Y-2.6566
X5.5148Y-2.4331
X5.534Y-2.6856
X5.5404Y-2.2618
X5.6073Y-2.4577
X5.6555Y-2.4557
X5.6742Y-1.9892
X5.7707Y-2.5344
X5.7835Y-2.7071
X5.7835Y-3.3123
X5.7937Y-3.0764
X5.8327Y-2.2559
X5.9341Y-2.1752
X6.1831Y-2.6063
T3
X5.498Y-2.9951
T4
X5.4665Y-2.8652
X5.4665Y-2.9154
X5.4665Y-2.9656
X5.5167Y-2.8652
X5.5167Y-2.9154
X5.5167Y-2.9656
X5.5669Y-2.8652
X5.5669Y-2.9154
X5.5669Y-2.9656
T6
X4.6093Y-2.3228
X4.6093Y-2.4016
X4.6093Y-2.4803
T7
X4.8108Y-2.9518
X4.8138Y-2.7874
X4.9108Y-2.9518
X4.9138Y-2.7874
X4.92Y-3.1899
X4.92Y-3.2899
X5.0108Y-2.9518
X5.0138Y-2.7874
X5.02Y-3.1899
X5.02Y-3.2899
X5.12Y-3.1899
X5.12Y-3.2899
X5.22Y-3.1899
X5.22Y-3.2899
X6.0063Y-2.7057
X6.0073Y-2.9449
X6.0073Y-3.1256
X6.0073Y-3.3063
X6.1063Y-2.7057
X6.1073Y-2.9449
X6.1073Y-3.1256
X6.1073Y-3.3063
X6.2063Y-2.7057
X6.3063Y-2.7057
T5
G00X5.2955Y-1.6567
M15
G01X5.2955Y-1.7157
M16
G05
G00X5.2955Y-1.8776
M15
G01X5.2955Y-1.9169
M16
G05
G00X5.6356Y-1.6567
M15
G01X5.6356Y-1.7157
M16
G05
G00X5.6356Y-1.8776
M15
G01X5.6356Y-1.9169
M16
G05
M30
