%TF.GenerationSoftware,KiCad,Pcbnew,9.0.1*%
%TF.CreationDate,2025-11-13T19:44:27+01:00*%
%TF.ProjectId,RC thing,52432074-6869-46e6-972e-6b696361645f,rev?*%
%TF.SameCoordinates,Original*%
%TF.FileFunction,Paste,Bot*%
%TF.FilePolarity,Positive*%
%FSLAX46Y46*%
G04 Gerber Fmt 4.6, Leading zero omitted, Abs format (unit mm)*
G04 Created by KiCad (PCBNEW 9.0.1) date 2025-11-13 19:44:27*
%MOMM*%
%LPD*%
G01*
G04 APERTURE LIST*
G04 Aperture macros list*
%AMRoundRect*
0 Rectangle with rounded corners*
0 $1 Rounding radius*
0 $2 $3 $4 $5 $6 $7 $8 $9 X,Y pos of 4 corners*
0 Add a 4 corners polygon primitive as box body*
4,1,4,$2,$3,$4,$5,$6,$7,$8,$9,$2,$3,0*
0 Add four circle primitives for the rounded corners*
1,1,$1+$1,$2,$3*
1,1,$1+$1,$4,$5*
1,1,$1+$1,$6,$7*
1,1,$1+$1,$8,$9*
0 Add four rect primitives between the rounded corners*
20,1,$1+$1,$2,$3,$4,$5,0*
20,1,$1+$1,$4,$5,$6,$7,0*
20,1,$1+$1,$6,$7,$8,$9,0*
20,1,$1+$1,$8,$9,$2,$3,0*%
G04 Aperture macros list end*
%ADD10RoundRect,0.237500X-0.237500X0.250000X-0.237500X-0.250000X0.237500X-0.250000X0.237500X0.250000X0*%
%ADD11RoundRect,0.250000X-0.850000X1.300000X-0.850000X-1.300000X0.850000X-1.300000X0.850000X1.300000X0*%
%ADD12RoundRect,0.250000X-0.510000X0.500000X-0.510000X-0.500000X0.510000X-0.500000X0.510000X0.500000X0*%
%ADD13RoundRect,0.237500X-0.237500X0.300000X-0.237500X-0.300000X0.237500X-0.300000X0.237500X0.300000X0*%
%ADD14RoundRect,0.237500X-0.250000X-0.237500X0.250000X-0.237500X0.250000X0.237500X-0.250000X0.237500X0*%
%ADD15RoundRect,0.237500X0.237500X-0.300000X0.237500X0.300000X-0.237500X0.300000X-0.237500X-0.300000X0*%
%ADD16RoundRect,0.162500X-0.162500X0.650000X-0.162500X-0.650000X0.162500X-0.650000X0.162500X0.650000X0*%
%ADD17RoundRect,0.250000X0.337500X0.475000X-0.337500X0.475000X-0.337500X-0.475000X0.337500X-0.475000X0*%
%ADD18RoundRect,0.237500X0.250000X0.237500X-0.250000X0.237500X-0.250000X-0.237500X0.250000X-0.237500X0*%
%ADD19RoundRect,0.237500X0.237500X-0.250000X0.237500X0.250000X-0.237500X0.250000X-0.237500X-0.250000X0*%
%ADD20RoundRect,0.250000X-0.475000X0.337500X-0.475000X-0.337500X0.475000X-0.337500X0.475000X0.337500X0*%
%ADD21R,1.700000X1.000000*%
%ADD22RoundRect,0.249999X0.395001X0.395001X-0.395001X0.395001X-0.395001X-0.395001X0.395001X-0.395001X0*%
%ADD23RoundRect,0.050000X0.387500X0.050000X-0.387500X0.050000X-0.387500X-0.050000X0.387500X-0.050000X0*%
%ADD24RoundRect,0.050000X0.050000X0.387500X-0.050000X0.387500X-0.050000X-0.387500X0.050000X-0.387500X0*%
%ADD25RoundRect,0.237500X0.300000X0.237500X-0.300000X0.237500X-0.300000X-0.237500X0.300000X-0.237500X0*%
%ADD26R,0.750000X0.650000*%
%ADD27RoundRect,0.062500X-0.187500X-0.062500X0.187500X-0.062500X0.187500X0.062500X-0.187500X0.062500X0*%
%ADD28RoundRect,0.212500X0.887500X-0.212500X0.887500X0.212500X-0.887500X0.212500X-0.887500X-0.212500X0*%
%ADD29RoundRect,0.150000X0.150000X-0.512500X0.150000X0.512500X-0.150000X0.512500X-0.150000X-0.512500X0*%
%ADD30R,1.400000X1.200000*%
%ADD31R,0.300000X0.700000*%
%ADD32R,1.000000X0.700000*%
%ADD33RoundRect,0.250000X0.475000X-0.337500X0.475000X0.337500X-0.475000X0.337500X-0.475000X-0.337500X0*%
G04 APERTURE END LIST*
D10*
%TO.C,R7*%
X141625000Y-81075000D03*
X141625000Y-82900000D03*
%TD*%
D11*
%TO.C,D1*%
X131275000Y-48190000D03*
D12*
X131275000Y-51410000D03*
%TD*%
D13*
%TO.C,C10*%
X139775000Y-81125000D03*
X139775000Y-82850000D03*
%TD*%
D14*
%TO.C,R403*%
X131987500Y-64425000D03*
X133812500Y-64425000D03*
%TD*%
D15*
%TO.C,C4*%
X137650000Y-67662500D03*
X137650000Y-65937500D03*
%TD*%
%TO.C,C8*%
X136075000Y-67662500D03*
X136075000Y-65937500D03*
%TD*%
D16*
%TO.C,U3*%
X146890000Y-53675000D03*
X148160000Y-53675000D03*
X149430000Y-53675000D03*
X150700000Y-53675000D03*
X150700000Y-60850000D03*
X149430000Y-60850000D03*
X148160000Y-60850000D03*
X146890000Y-60850000D03*
%TD*%
D17*
%TO.C,C402*%
X124387500Y-58475000D03*
X122312500Y-58475000D03*
%TD*%
D15*
%TO.C,C15*%
X145600000Y-70482500D03*
X145600000Y-68757500D03*
%TD*%
%TO.C,C30*%
X128050000Y-68012500D03*
X128050000Y-66287500D03*
%TD*%
D18*
%TO.C,R405*%
X133861025Y-60525000D03*
X132036025Y-60525000D03*
%TD*%
D15*
%TO.C,C5*%
X142225000Y-65437500D03*
X142225000Y-63712500D03*
%TD*%
D19*
%TO.C,R10*%
X144500000Y-53687500D03*
X144500000Y-51862500D03*
%TD*%
D20*
%TO.C,C403*%
X122000000Y-47362500D03*
X122000000Y-49437500D03*
%TD*%
D21*
%TO.C,SW1*%
X125700000Y-87650000D03*
X132000000Y-87650000D03*
X125700000Y-91450000D03*
X132000000Y-91450000D03*
%TD*%
D22*
%TO.C,U2*%
X140912500Y-74825000D03*
X140912500Y-73225000D03*
X139312500Y-74825000D03*
X139312500Y-73225000D03*
D23*
X143550000Y-71425000D03*
X143550000Y-71825000D03*
X143550000Y-72225000D03*
X143550000Y-72625000D03*
X143550000Y-73025000D03*
X143550000Y-73425000D03*
X143550000Y-73825000D03*
X143550000Y-74225000D03*
X143550000Y-74625000D03*
X143550000Y-75025000D03*
X143550000Y-75425000D03*
X143550000Y-75825000D03*
X143550000Y-76225000D03*
X143550000Y-76625000D03*
D24*
X142712500Y-77462500D03*
X142312500Y-77462500D03*
X141912500Y-77462500D03*
X141512500Y-77462500D03*
X141112500Y-77462500D03*
X140712500Y-77462500D03*
X140312500Y-77462500D03*
X139912500Y-77462500D03*
X139512500Y-77462500D03*
X139112500Y-77462500D03*
X138712500Y-77462500D03*
X138312500Y-77462500D03*
X137912500Y-77462500D03*
X137512500Y-77462500D03*
D23*
X136675000Y-76625000D03*
X136675000Y-76225000D03*
X136675000Y-75825000D03*
X136675000Y-75425000D03*
X136675000Y-75025000D03*
X136675000Y-74625000D03*
X136675000Y-74225000D03*
X136675000Y-73825000D03*
X136675000Y-73425000D03*
X136675000Y-73025000D03*
X136675000Y-72625000D03*
X136675000Y-72225000D03*
X136675000Y-71825000D03*
X136675000Y-71425000D03*
D24*
X137512500Y-70587500D03*
X137912500Y-70587500D03*
X138312500Y-70587500D03*
X138712500Y-70587500D03*
X139112500Y-70587500D03*
X139512500Y-70587500D03*
X139912500Y-70587500D03*
X140312500Y-70587500D03*
X140712500Y-70587500D03*
X141112500Y-70587500D03*
X141512500Y-70587500D03*
X141912500Y-70587500D03*
X142312500Y-70587500D03*
X142712500Y-70587500D03*
%TD*%
D21*
%TO.C,SW5*%
X152775000Y-48725000D03*
X146475000Y-48725000D03*
X152775000Y-44925000D03*
X146475000Y-44925000D03*
%TD*%
D13*
%TO.C,C16*%
X135025000Y-51800000D03*
X135025000Y-53525000D03*
%TD*%
D17*
%TO.C,C404*%
X129486025Y-59700000D03*
X127411025Y-59700000D03*
%TD*%
D10*
%TO.C,R25*%
X124550000Y-66212500D03*
X124550000Y-68037500D03*
%TD*%
D25*
%TO.C,C1*%
X146875000Y-62850000D03*
X145150000Y-62850000D03*
%TD*%
D13*
%TO.C,C12*%
X145600000Y-76387500D03*
X145600000Y-78112500D03*
%TD*%
%TO.C,R1*%
X135275000Y-87650000D03*
X135275000Y-89375000D03*
%TD*%
D26*
%TO.C,U401*%
X125523525Y-62925000D03*
X125523525Y-63725000D03*
D27*
X124573525Y-64075000D03*
X124573525Y-63575000D03*
X124573525Y-63075000D03*
X124573525Y-62575000D03*
X126473525Y-62575000D03*
X126473525Y-63075000D03*
X126473525Y-63575000D03*
X126473525Y-64075000D03*
%TD*%
D25*
%TO.C,C11*%
X127275000Y-78050000D03*
X125550000Y-78050000D03*
%TD*%
D10*
%TO.C,R3*%
X137000000Y-51775000D03*
X137000000Y-53600000D03*
%TD*%
D14*
%TO.C,R404*%
X131986025Y-62625000D03*
X133811025Y-62625000D03*
%TD*%
D25*
%TO.C,C14*%
X133800000Y-68275000D03*
X132075000Y-68275000D03*
%TD*%
D10*
%TO.C,R2*%
X128475000Y-53537500D03*
X128475000Y-55362500D03*
%TD*%
D28*
%TO.C,L402*%
X129473525Y-63400000D03*
X129473525Y-61750000D03*
%TD*%
D13*
%TO.C,C3*%
X138200000Y-86037500D03*
X138200000Y-87762500D03*
%TD*%
D29*
%TO.C,U1*%
X126287500Y-55337500D03*
X125337500Y-55337500D03*
X124387500Y-55337500D03*
X124387500Y-53062500D03*
X126287500Y-53062500D03*
%TD*%
D15*
%TO.C,C2*%
X146900000Y-87812500D03*
X146900000Y-86087500D03*
%TD*%
D25*
%TO.C,C9*%
X133800000Y-70375000D03*
X132075000Y-70375000D03*
%TD*%
D20*
%TO.C,C403*%
X125325000Y-47287500D03*
X125325000Y-49362500D03*
%TD*%
D15*
%TO.C,C13*%
X140250000Y-65425000D03*
X140250000Y-63700000D03*
%TD*%
D19*
%TO.C,R26*%
X126325000Y-68037500D03*
X126325000Y-66212500D03*
%TD*%
D30*
%TO.C,Y3*%
X141625000Y-86050000D03*
X143825000Y-86050000D03*
X143825000Y-87750000D03*
X141625000Y-87750000D03*
%TD*%
D31*
%TO.C,P1*%
X135825000Y-48600000D03*
X136325000Y-48600000D03*
X136825000Y-48600000D03*
X137325000Y-48600000D03*
X137825000Y-48600000D03*
X138325000Y-48600000D03*
X139325000Y-48600000D03*
X139825000Y-48600000D03*
X140325000Y-48600000D03*
X140825000Y-48600000D03*
X141325000Y-48600000D03*
X141825000Y-48600000D03*
D32*
X141925000Y-47300000D03*
D31*
X141075000Y-47300000D03*
X140575000Y-47300000D03*
X140075000Y-47300000D03*
X139575000Y-47300000D03*
X139075000Y-47300000D03*
X138575000Y-47300000D03*
X138075000Y-47300000D03*
X137575000Y-47300000D03*
X137075000Y-47300000D03*
X136575000Y-47300000D03*
D32*
X135725000Y-47300000D03*
%TD*%
D19*
%TO.C,R8*%
X144525000Y-57562500D03*
X144525000Y-55737500D03*
%TD*%
D10*
%TO.C,R4*%
X137975000Y-58737500D03*
X137975000Y-60562500D03*
%TD*%
D13*
%TO.C,C6*%
X137775000Y-81125000D03*
X137775000Y-82850000D03*
%TD*%
D10*
%TO.C,R5*%
X139725000Y-58737500D03*
X139725000Y-60562500D03*
%TD*%
D33*
%TO.C,C401*%
X122323525Y-63062500D03*
X122323525Y-60987500D03*
%TD*%
M02*
